<svg xmlns="http://www.w3.org/2000/svg" width="377" height="355" viewBox="0 0 377 355">
  <defs>
    <linearGradient id="404-a" x1="-13.515%" x2="134.793%" y1="40.286%" y2="50.809%">
      <stop offset=".092%" stop-color="#2F0DF1"/>
      <stop offset="100%" stop-color="#FF3247"/>
    </linearGradient>
    <linearGradient id="404-b" x1="-13.652%" x2="134.793%" y1="43.248%" y2="50.562%">
      <stop offset=".092%" stop-color="#2F0DF1"/>
      <stop offset="100%" stop-color="#FF3247"/>
    </linearGradient>
    <linearGradient id="404-c" x1="-13.652%" x2="134.793%" y1="45.68%" y2="50.359%">
      <stop offset=".092%" stop-color="#2F0DF1"/>
      <stop offset="100%" stop-color="#FF3247"/>
    </linearGradient>
    <linearGradient id="404-d" x1="-13.652%" x2="134.793%" y1="47.57%" y2="50.202%">
      <stop offset=".092%" stop-color="#2F0DF1"/>
      <stop offset="100%" stop-color="#FF3247"/>
    </linearGradient>
    <linearGradient id="404-e" x1="-13.652%" x2="134.793%" y1="48.921%" y2="50.09%">
      <stop offset=".092%" stop-color="#2F0DF1"/>
      <stop offset="100%" stop-color="#FF3247"/>
    </linearGradient>
    <linearGradient id="404-f" x1="-13.652%" x2="134.793%" y1="49.731%" y2="50.022%">
      <stop offset=".092%" stop-color="#2F0DF1"/>
      <stop offset="100%" stop-color="#FF3247"/>
    </linearGradient>
    <linearGradient id="404-g" x1="-13.652%" x2="134.793%" y1="50%" y2="50%">
      <stop offset=".092%" stop-color="#2F0DF1"/>
      <stop offset="100%" stop-color="#FF3247"/>
    </linearGradient>
    <linearGradient id="404-h" x1="-13.652%" x2="134.793%" y1="49.729%" y2="50.023%">
      <stop offset=".092%" stop-color="#2F0DF1"/>
      <stop offset="100%" stop-color="#FF3247"/>
    </linearGradient>
    <linearGradient id="404-i" x1="-13.515%" x2="134.793%" y1="48.918%" y2="50.09%">
      <stop offset=".092%" stop-color="#2F0DF1"/>
      <stop offset="100%" stop-color="#FF3247"/>
    </linearGradient>
    <linearGradient id="404-j" x1="-13.652%" x2="134.793%" y1="47.565%" y2="50.203%">
      <stop offset=".092%" stop-color="#2F0DF1"/>
      <stop offset="100%" stop-color="#FF3247"/>
    </linearGradient>
    <linearGradient id="404-k" x1="-13.652%" x2="134.793%" y1="45.672%" y2="50.36%">
      <stop offset=".092%" stop-color="#2F0DF1"/>
      <stop offset="100%" stop-color="#FF3247"/>
    </linearGradient>
    <linearGradient id="404-l" x1="-13.652%" x2="134.793%" y1="43.238%" y2="50.562%">
      <stop offset=".092%" stop-color="#2F0DF1"/>
      <stop offset="100%" stop-color="#FF3247"/>
    </linearGradient>
  </defs>
  <g fill="none" fill-rule="evenodd" stroke-width="2" transform="translate(1 1)">
    <line x2="375" y1="352.436" y2="206.892" stroke="url(#404-a)"/>
    <line x2="375" y1="320.396" y2="199.117" stroke="url(#404-b)"/>
    <line x2="375" y1="288.357" y2="191.342" stroke="url(#404-c)"/>
    <line x2="375" y1="256.317" y2="183.567" stroke="url(#404-d)"/>
    <line x2="375" y1="224.277" y2="175.792" stroke="url(#404-e)"/>
    <line x2="375" y1="192.238" y2="168.018" stroke="url(#404-f)"/>
    <line x2="375" y1="160.198" y2="160.243" stroke="url(#404-g)"/>
    <line x2="375" y1="128.158" y2="152.468" stroke="url(#404-h)"/>
    <line x2="375" y1="96.119" y2="144.693" stroke="url(#404-i)"/>
    <line x2="375" y1="64.079" y2="136.918" stroke="url(#404-j)"/>
    <line x2="375" y1="32.04" y2="129.143" stroke="url(#404-k)"/>
    <line x2="375" y2="121.368" stroke="url(#404-l)"/>
  </g>
</svg>
