<svg xmlns="http://www.w3.org/2000/svg" width="117" height="1428" viewBox="0 0 117 1428">
  <defs>
    <linearGradient id="aboutreversed-a" x1="50%" x2="50%" y1="0%" y2="100%">
      <stop offset="0%" stop-color="#6FEEFF"/>
      <stop offset="100%" stop-color="#002B5E"/>
    </linearGradient>
  </defs>
  <g fill="none" fill-rule="evenodd" stroke="url(#aboutreversed-a)" transform="rotate(-90 714 713)">
    <path d="M212,60.7499609 C287.082975,-11.5834247 401.296328,-11.5834247 554.640058,60.7499609 C707.983787,133.083346 822.48314,133.083346 898.138116,60.7499609 C996.990879,-20.249987 1084.97166,-20.249987 1162.08047,60.7499609 C1277.74369,182.249883 1246.43859,26.7902421 1427,26.7902421"/>
    <path d="M194,60.7499609 C269.082975,-11.5834247 383.296328,-11.5834247 536.640058,60.7499609 C689.983787,133.083346 804.48314,133.083346 880.138116,60.7499609 C978.990879,-20.249987 1066.97166,-20.249987 1144.08047,60.7499609 C1259.74369,182.249883 1228.43859,26.7902421 1409,26.7902421"/>
    <path d="M175,60.7499609 C250.082975,-11.5834247 364.296328,-11.5834247 517.640058,60.7499609 C670.983787,133.083346 785.48314,133.083346 861.138116,60.7499609 C959.990879,-20.249987 1047.97166,-20.249987 1125.08047,60.7499609 C1240.74369,182.249883 1209.43859,26.7902421 1390,26.7902421"/>
    <path d="M160,60.7499609 C235.082975,-11.5834247 349.296328,-11.5834247 502.640058,60.7499609 C655.983787,133.083346 770.48314,133.083346 846.138116,60.7499609 C944.990879,-20.249987 1032.97166,-20.249987 1110.08047,60.7499609 C1225.74369,182.249883 1194.43859,26.7902421 1375,26.7902421"/>
    <path d="M141,60.7499609 C216.082975,-11.5834247 330.296328,-11.5834247 483.640058,60.7499609 C636.983787,133.083346 751.48314,133.083346 827.138116,60.7499609 C925.990879,-20.249987 1013.97166,-20.249987 1091.08047,60.7499609 C1206.74369,182.249883 1175.43859,26.7902421 1356,26.7902421"/>
    <path d="M124,60.7499609 C199.082975,-11.5834247 313.296328,-11.5834247 466.640058,60.7499609 C619.983787,133.083346 734.48314,133.083346 810.138116,60.7499609 C908.990879,-20.249987 996.971665,-20.249987 1074.08047,60.7499609 C1189.74369,182.249883 1158.43859,26.7902421 1339,26.7902421"/>
    <path d="M106,60.7499609 C181.082975,-11.5834247 295.296328,-11.5834247 448.640058,60.7499609 C601.983787,133.083346 716.48314,133.083346 792.138116,60.7499609 C890.990879,-20.249987 978.971665,-20.249987 1056.08047,60.7499609 C1171.74369,182.249883 1140.43859,26.7902421 1321,26.7902421"/>
    <path d="M88,60.7499609 C163.082975,-11.5834247 277.296328,-11.5834247 430.640058,60.7499609 C583.983787,133.083346 698.48314,133.083346 774.138116,60.7499609 C872.990879,-20.249987 960.971665,-20.249987 1038.08047,60.7499609 C1153.74369,182.249883 1122.43859,26.7902421 1303,26.7902421"/>
    <path d="M71,60.7499609 C146.082975,-11.5834247 260.296328,-11.5834247 413.640058,60.7499609 C566.983787,133.083346 681.48314,133.083346 757.138116,60.7499609 C855.990879,-20.249987 943.971665,-20.249987 1021.08047,60.7499609 C1136.74369,182.249883 1105.43859,26.7902421 1286,26.7902421"/>
    <path d="M52,60.7499609 C127.082975,-11.5834247 241.296328,-11.5834247 394.640058,60.7499609 C547.983787,133.083346 662.48314,133.083346 738.138116,60.7499609 C836.990879,-20.249987 924.971665,-20.249987 1002.08047,60.7499609 C1117.74369,182.249883 1086.43859,26.7902421 1267,26.7902421"/>
    <path d="M37,60.7499609 C112.082975,-11.5834247 226.296328,-11.5834247 379.640058,60.7499609 C532.983787,133.083346 647.48314,133.083346 723.138116,60.7499609 C821.990879,-20.249987 909.971665,-20.249987 987.080474,60.7499609 C1102.74369,182.249883 1071.43859,26.7902421 1252,26.7902421"/>
    <path d="M18,60.7499609 C93.0829753,-11.5834247 207.296328,-11.5834247 360.640058,60.7499609 C513.983787,133.083346 628.48314,133.083346 704.138116,60.7499609 C802.990879,-20.249987 890.971665,-20.249987 968.080474,60.7499609 C1083.74369,182.249883 1052.43859,26.7902421 1233,26.7902421"/>
    <path d="M0,60.7499609 C75.0829753,-11.5834247 189.296328,-11.5834247 342.640058,60.7499609 C495.983787,133.083346 610.48314,133.083346 686.138116,60.7499609 C784.990879,-20.249987 872.971665,-20.249987 950.080474,60.7499609 C1065.74369,182.249883 1034.43859,26.7902421 1215,26.7902421"/>
  </g>
</svg>
