<svg xmlns="http://www.w3.org/2000/svg" width="474" height="154" viewBox="0 0 474 154">
  <path fill="#F0F0F0" d="M0.0614461888,154.452285 L4.16371892,130.577984 L86.2091735,38.307034 L86.6409916,36.156196 L21.6523553,36.156196 L27.9137189,0.452285417 L152.061446,0.452285417 L147.743264,24.3265871 L67.8569007,116.597537 L67.4250826,118.748375 L133.277355,118.748375 L127.015992,154.452285 L0.0614461888,154.452285 Z M131.061446,154.452285 L206.556183,0.452285417 L272.828551,0.452285417 L294.061446,154.452285 L247.306183,154.452285 L244.303551,131.008151 L189.183815,131.008151 L177.816709,154.452285 L131.061446,154.452285 Z M204.061446,98.4522854 L241.061446,98.4522854 L233.872875,39.4522854 L231.758589,39.4522854 L204.061446,98.4522854 Z M304.061446,154.452285 L331.252882,0.452285417 L376.429204,0.452285417 L365.93802,60.4606653 L367.864973,60.4606653 L420.749104,0.452285417 L474.061446,0.452285417 L404.691169,73.7958608 L447.512328,154.452285 L394.199985,154.452285 L362.940539,88.8517268 L360.799481,88.8517268 L349.237769,154.452285 L304.061446,154.452285 Z"/>
</svg>
