<svg xmlns="http://www.w3.org/2000/svg" width="228" height="107" viewBox="0 0 228 107">
  <defs>
    <linearGradient id="home-a" x1="100.212%" x2="1.492%" y1="48.048%" y2="52.15%">
      <stop offset="0%" stop-color="#2E0AFF"/>
      <stop offset="100%" stop-color="#FF3549"/>
    </linearGradient>
  </defs>
  <g fill="none" fill-rule="evenodd" stroke="url(#home-a)" transform="translate(1 1)">
    <path d="M12,43 C42.8443357,15.8699332 68.378638,9.23540043 88.6029069,23.0964017 C118.93931,43.8879036 147.289529,3.15967508 169.163468,0.257991923 C191.037408,-2.64369124 218.604152,19.8579597 226,21.3228243"/>
    <path d="M11,47 C41.8443357,19.8699332 67.378638,13.2354004 87.6029069,27.0964017 C117.93931,47.8879036 146.289529,7.15967508 168.163468,4.25799192 C190.037408,1.35630876 217.604152,23.8579597 225,25.3228243"/>
    <path d="M10,51 C40.8443357,23.8699332 66.378638,17.2354004 86.6029069,31.0964017 C116.93931,51.8879036 145.289529,11.1596751 167.163468,8.25799192 C189.037408,5.35630876 216.604152,27.8579597 224,29.3228243"/>
    <path d="M9,56 C39.8443357,28.8699332 65.378638,22.2354004 85.6029069,36.0964017 C115.93931,56.8879036 144.289529,16.1596751 166.163468,13.2579919 C188.037408,10.3563088 215.604152,32.8579597 223,34.3228243"/>
    <path d="M8,60 C38.8443357,32.8699332 64.378638,26.2354004 84.6029069,40.0964017 C114.93931,60.8879036 143.289529,20.1596751 165.163468,17.2579919 C187.037408,14.3563088 214.604152,36.8579597 222,38.3228243"/>
    <path d="M7,65 C37.8443357,37.8699332 63.378638,31.2354004 83.6029069,45.0964017 C113.93931,65.8879036 142.289529,25.1596751 164.163468,22.2579919 C186.037408,19.3563088 213.604152,41.8579597 221,43.3228243"/>
    <path d="M7,69 C37.8443357,41.8699332 63.378638,35.2354004 83.6029069,49.0964017 C113.93931,69.8879036 142.289529,29.1596751 164.163468,26.2579919 C186.037408,23.3563088 213.604152,45.8579597 221,47.3228243"/>
    <path d="M6,74 C36.8443357,46.8699332 62.378638,40.2354004 82.6029069,54.0964017 C112.93931,74.8879036 141.289529,34.1596751 163.163468,31.2579919 C185.037408,28.3563088 212.604152,50.8579597 220,52.3228243"/>
    <path d="M6,78 C36.8443357,50.8699332 62.378638,44.2354004 82.6029069,58.0964017 C112.93931,78.8879036 141.289529,38.1596751 163.163468,35.2579919 C185.037408,32.3563088 212.604152,54.8579597 220,56.3228243"/>
    <path d="M5,82 C35.8443357,54.8699332 61.378638,48.2354004 81.6029069,62.0964017 C111.93931,82.8879036 140.289529,42.1596751 162.163468,39.2579919 C184.037408,36.3563088 211.604152,58.8579597 219,60.3228243"/>
    <path d="M4,87 C34.8443357,59.8699332 60.378638,53.2354004 80.6029069,67.0964017 C110.93931,87.8879036 139.289529,47.1596751 161.163468,44.2579919 C183.037408,41.3563088 210.604152,63.8579597 218,65.3228243"/>
    <path d="M2,92 C32.8443357,64.8699332 58.378638,58.2354004 78.6029069,72.0964017 C108.93931,92.8879036 137.289529,52.1596751 159.163468,49.2579919 C181.037408,46.3563088 208.604152,68.8579597 216,70.3228243"/>
    <path d="M2,96 C32.8443357,68.8699332 58.378638,62.2354004 78.6029069,76.0964017 C108.93931,96.8879036 137.289529,56.1596751 159.163468,53.2579919 C181.037408,50.3563088 208.604152,72.8579597 216,74.3228243"/>
    <path d="M1,100 C31.8443357,72.8699332 57.378638,66.2354004 77.6029069,80.0964017 C107.93931,100.887904 136.289529,60.1596751 158.163468,57.2579919 C180.037408,54.3563088 207.604152,76.8579597 215,78.3228243"/>
    <path d="M0,105 C30.8443357,77.8699332 56.378638,71.2354004 76.6029069,85.0964017 C106.93931,105.887904 135.289529,65.1596751 157.163468,62.2579919 C179.037408,59.3563088 206.604152,81.8579597 214,83.3228243"/>
  </g>
</svg>
