<svg xmlns="http://www.w3.org/2000/svg" width="34" height="26" viewBox="0 0 34 26">
  <defs>
    <linearGradient id="logo-a" x1="50%" x2="100%" y1="50%" y2="79.969%">
      <stop offset="0%" stop-color="#C8C8C8"/>
      <stop offset="100%" stop-color="#484848"/>
    </linearGradient>
  </defs>
  <path fill="none" stroke="url(#logo-a)" d="M28.4706567,15 C28.4976005,15 28.524505,15.0019741 28.5511355,15.005905 C28.8400436,15.0485508 29.0382183,15.3078358 28.993771,15.5850344 L28.993771,15.5850344 L27.5531787,24.5693996 L27.0300643,25 L1,25 C3.16022905,20.3255557 6.24114367,16.9922223 10.2427439,15 L10.2427439,15 Z M32,1 C27.4604476,3.81283253 24.3788053,7.14616586 22.7550731,11 L22.7550731,11 L4.5294752,11 C4.50066245,11 4.4718978,10.9977436 4.44346784,10.9932534 C4.15497606,10.9476888 3.95961407,10.6864144 4.00711462,10.4096807 L4.00711462,10.4096807 L5.54925501,1.42531542 L6.07161559,1 Z"/>
</svg>
