<svg xmlns="http://www.w3.org/2000/svg" width="615" height="855" viewBox="0 0 615 855">
  <defs>
    <linearGradient id="overlay-a" x1="100.212%" x2="0%" y1="14.616%" y2="90.107%">
      <stop offset="0%" stop-color="#EA1A39"/>
      <stop offset="100%" stop-color="#3C1DF2"/>
    </linearGradient>
  </defs>
  <g fill="none" fill-rule="evenodd" stroke="url(#overlay-a)" transform="rotate(-100 473.49 396.726)">
    <path d="M0,456 C5.38555311,400.249102 23.7016793,364.421722 54.9483787,348.517861 C101.818428,324.662069 121.415371,363.722651 161.221253,324.662069 C201.027135,285.601487 206.390831,235.770939 243.643821,226.999737 C280.896811,218.228536 321.41523,242.608631 357.78957,181.789469 C394.163911,120.970308 422.980117,97.1145159 455.424577,97.1145159 C477.054218,97.1145159 502.912692,64.7430106 533,2.84217094e-14"/>
    <path d="M8,456 C13.3855531,400.249102 31.7016793,364.421722 62.9483787,348.517861 C109.818428,324.662069 129.415371,363.722651 169.221253,324.662069 C209.027135,285.601487 214.390831,235.770939 251.643821,226.999737 C288.896811,218.228536 329.41523,242.608631 365.78957,181.789469 C402.163911,120.970308 430.980117,97.1145159 463.424577,97.1145159 C485.054218,97.1145159 510.912692,64.7430106 541,-2.84217094e-14"/>
    <path d="M17,456 C22.3855531,400.249102 40.7016793,364.421722 71.9483787,348.517861 C118.818428,324.662069 138.415371,363.722651 178.221253,324.662069 C218.027135,285.601487 223.390831,235.770939 260.643821,226.999737 C297.896811,218.228536 338.41523,242.608631 374.78957,181.789469 C411.163911,120.970308 439.980117,97.1145159 472.424577,97.1145159 C494.054218,97.1145159 519.912692,64.7430106 550,0"/>
    <path d="M25,456 C30.3855531,400.249102 48.7016793,364.421722 79.9483787,348.517861 C126.818428,324.662069 146.415371,363.722651 186.221253,324.662069 C226.027135,285.601487 231.390831,235.770939 268.643821,226.999737 C305.896811,218.228536 346.41523,242.608631 382.78957,181.789469 C419.163911,120.970308 447.980117,97.1145159 480.424577,97.1145159 C502.054218,97.1145159 527.912692,64.7430106 558,0"/>
    <path d="M33,456 C38.3855531,400.249102 56.7016793,364.421722 87.9483787,348.517861 C134.818428,324.662069 154.415371,363.722651 194.221253,324.662069 C234.027135,285.601487 239.390831,235.770939 276.643821,226.999737 C313.896811,218.228536 354.41523,242.608631 390.78957,181.789469 C427.163911,120.970308 455.980117,97.1145159 488.424577,97.1145159 C510.054218,97.1145159 535.912692,64.7430106 566,0"/>
    <path d="M41,456 C46.3855531,400.249102 64.7016793,364.421722 95.9483787,348.517861 C142.818428,324.662069 162.415371,363.722651 202.221253,324.662069 C242.027135,285.601487 247.390831,235.770939 284.643821,226.999737 C321.896811,218.228536 362.41523,242.608631 398.78957,181.789469 C435.163911,120.970308 463.980117,97.1145159 496.424577,97.1145159 C518.054218,97.1145159 543.912692,64.7430106 574,5.68434189e-14"/>
    <path d="M50,456 C55.3855531,400.249102 73.7016793,364.421722 104.948379,348.517861 C151.818428,324.662069 171.415371,363.722651 211.221253,324.662069 C251.027135,285.601487 256.390831,235.770939 293.643821,226.999737 C330.896811,218.228536 371.41523,242.608631 407.78957,181.789469 C444.163911,120.970308 472.980117,97.1145159 505.424577,97.1145159 C527.054218,97.1145159 552.912692,64.7430106 583,-2.84217094e-14"/>
    <path d="M58,456 C63.3855531,400.249102 81.7016793,364.421722 112.948379,348.517861 C159.818428,324.662069 179.415371,363.722651 219.221253,324.662069 C259.027135,285.601487 264.390831,235.770939 301.643821,226.999737 C338.896811,218.228536 379.41523,242.608631 415.78957,181.789469 C452.163911,120.970308 480.980117,97.1145159 513.424577,97.1145159 C535.054218,97.1145159 560.912692,64.7430106 591,0"/>
    <path d="M66,456 C71.3855531,400.249102 89.7016793,364.421722 120.948379,348.517861 C167.818428,324.662069 187.415371,363.722651 227.221253,324.662069 C267.027135,285.601487 272.390831,235.770939 309.643821,226.999737 C346.896811,218.228536 387.41523,242.608631 423.78957,181.789469 C460.163911,120.970308 488.980117,97.1145159 521.424577,97.1145159 C543.054218,97.1145159 568.912692,64.7430106 599,0"/>
    <path d="M74,456 C79.3855531,400.249102 97.7016793,364.421722 128.948379,348.517861 C175.818428,324.662069 195.415371,363.722651 235.221253,324.662069 C275.027135,285.601487 280.390831,235.770939 317.643821,226.999737 C354.896811,218.228536 395.41523,242.608631 431.78957,181.789469 C468.163911,120.970308 496.980117,97.1145159 529.424577,97.1145159 C551.054218,97.1145159 576.912692,64.7430106 607,0"/>
    <path d="M82,456 C87.3855531,400.249102 105.701679,364.421722 136.948379,348.517861 C183.818428,324.662069 203.415371,363.722651 243.221253,324.662069 C283.027135,285.601487 288.390831,235.770939 325.643821,226.999737 C362.896811,218.228536 403.41523,242.608631 439.78957,181.789469 C476.163911,120.970308 504.980117,97.1145159 537.424577,97.1145159 C559.054218,97.1145159 584.912692,64.7430106 615,-5.68434189e-14"/>
    <path d="M91,456 C96.3855531,400.249102 114.701679,364.421722 145.948379,348.517861 C192.818428,324.662069 212.415371,363.722651 252.221253,324.662069 C292.027135,285.601487 297.390831,235.770939 334.643821,226.999737 C371.896811,218.228536 412.41523,242.608631 448.78957,181.789469 C485.163911,120.970308 513.980117,97.1145159 546.424577,97.1145159 C568.054218,97.1145159 593.912692,64.7430106 624,-5.68434189e-14"/>
    <path d="M99,456 C104.385553,400.249102 122.701679,364.421722 153.948379,348.517861 C200.818428,324.662069 220.415371,363.722651 260.221253,324.662069 C300.027135,285.601487 305.390831,235.770939 342.643821,226.999737 C379.896811,218.228536 420.41523,242.608631 456.78957,181.789469 C493.163911,120.970308 521.980117,97.1145159 554.424577,97.1145159 C576.054218,97.1145159 601.912692,64.7430106 632,1.13686838e-13"/>
    <path d="M107,456 C112.385553,400.249102 130.701679,364.421722 161.948379,348.517861 C208.818428,324.662069 228.415371,363.722651 268.221253,324.662069 C308.027135,285.601487 313.390831,235.770939 350.643821,226.999737 C387.896811,218.228536 428.41523,242.608631 464.78957,181.789469 C501.163911,120.970308 529.980117,97.1145159 562.424577,97.1145159 C584.054218,97.1145159 609.912692,64.7430106 640,5.68434189e-14"/>
    <path d="M115,456 C120.385553,400.249102 138.701679,364.421722 169.948379,348.517861 C216.818428,324.662069 236.415371,363.722651 276.221253,324.662069 C316.027135,285.601487 321.390831,235.770939 358.643821,226.999737 C395.896811,218.228536 436.41523,242.608631 472.78957,181.789469 C509.163911,120.970308 537.980117,97.1145159 570.424577,97.1145159 C592.054218,97.1145159 617.912692,64.7430106 648,5.68434189e-14"/>
    <path d="M124,456 C129.385553,400.249102 147.701679,364.421722 178.948379,348.517861 C225.818428,324.662069 245.415371,363.722651 285.221253,324.662069 C325.027135,285.601487 330.390831,235.770939 367.643821,226.999737 C404.896811,218.228536 445.41523,242.608631 481.78957,181.789469 C518.163911,120.970308 546.980117,97.1145159 579.424577,97.1145159 C601.054218,97.1145159 626.912692,64.7430106 657,-5.68434189e-14"/>
    <path d="M132,456 C137.385553,400.249102 155.701679,364.421722 186.948379,348.517861 C233.818428,324.662069 253.415371,363.722651 293.221253,324.662069 C333.027135,285.601487 338.390831,235.770939 375.643821,226.999737 C412.896811,218.228536 453.41523,242.608631 489.78957,181.789469 C526.163911,120.970308 554.980117,97.1145159 587.424577,97.1145159 C609.054218,97.1145159 634.912692,64.7430106 665,0"/>
    <path d="M140,456 C145.385553,400.249102 163.701679,364.421722 194.948379,348.517861 C241.818428,324.662069 261.415371,363.722651 301.221253,324.662069 C341.027135,285.601487 346.390831,235.770939 383.643821,226.999737 C420.896811,218.228536 461.41523,242.608631 497.78957,181.789469 C534.163911,120.970308 562.980117,97.1145159 595.424577,97.1145159 C617.054218,97.1145159 642.912692,64.7430106 673,1.13686838e-13"/>
    <path d="M148,456 C153.385553,400.249102 171.701679,364.421722 202.948379,348.517861 C249.818428,324.662069 269.415371,363.722651 309.221253,324.662069 C349.027135,285.601487 354.390831,235.770939 391.643821,226.999737 C428.896811,218.228536 469.41523,242.608631 505.78957,181.789469 C542.163911,120.970308 570.980117,97.1145159 603.424577,97.1145159 C625.054218,97.1145159 650.912692,64.7430106 681,0"/>
    <path d="M157,456 C162.385553,400.249102 180.701679,364.421722 211.948379,348.517861 C258.818428,324.662069 278.415371,363.722651 318.221253,324.662069 C358.027135,285.601487 363.390831,235.770939 400.643821,226.999737 C437.896811,218.228536 478.41523,242.608631 514.78957,181.789469 C551.163911,120.970308 579.980117,97.1145159 612.424577,97.1145159 C634.054218,97.1145159 659.912692,64.7430106 690,5.68434189e-14"/>
    <path d="M165,456 C170.385553,400.249102 188.701679,364.421722 219.948379,348.517861 C266.818428,324.662069 286.415371,363.722651 326.221253,324.662069 C366.027135,285.601487 371.390831,235.770939 408.643821,226.999737 C445.896811,218.228536 486.41523,242.608631 522.78957,181.789469 C559.163911,120.970308 587.980117,97.1145159 620.424577,97.1145159 C642.054218,97.1145159 667.912692,64.7430106 698,5.68434189e-14"/>
    <path d="M173,456 C178.385553,400.249102 196.701679,364.421722 227.948379,348.517861 C274.818428,324.662069 294.415371,363.722651 334.221253,324.662069 C374.027135,285.601487 379.390831,235.770939 416.643821,226.999737 C453.896811,218.228536 494.41523,242.608631 530.78957,181.789469 C567.163911,120.970308 595.980117,97.1145159 628.424577,97.1145159 C650.054218,97.1145159 675.912692,64.7430106 706,-5.68434189e-14"/>
    <path d="M181,456 C186.385553,400.249102 204.701679,364.421722 235.948379,348.517861 C282.818428,324.662069 302.415371,363.722651 342.221253,324.662069 C382.027135,285.601487 387.390831,235.770939 424.643821,226.999737 C461.896811,218.228536 502.41523,242.608631 538.78957,181.789469 C575.163911,120.970308 603.980117,97.1145159 636.424577,97.1145159 C658.054218,97.1145159 683.912692,64.7430106 714,5.68434189e-14"/>
    <path d="M190,456 C195.385553,400.249102 213.701679,364.421722 244.948379,348.517861 C291.818428,324.662069 311.415371,363.722651 351.221253,324.662069 C391.027135,285.601487 396.390831,235.770939 433.643821,226.999737 C470.896811,218.228536 511.41523,242.608631 547.78957,181.789469 C584.163911,120.970308 612.980117,97.1145159 645.424577,97.1145159 C667.054218,97.1145159 692.912692,64.7430106 723,-2.27373675e-13"/>
    <path d="M198,456 C203.385553,400.249102 221.701679,364.421722 252.948379,348.517861 C299.818428,324.662069 319.415371,363.722651 359.221253,324.662069 C399.027135,285.601487 404.390831,235.770939 441.643821,226.999737 C478.896811,218.228536 519.41523,242.608631 555.78957,181.789469 C592.163911,120.970308 620.980117,97.1145159 653.424577,97.1145159 C675.054218,97.1145159 700.912692,64.7430106 731,-1.13686838e-13"/>
    <path d="M206,456 C211.385553,400.249102 229.701679,364.421722 260.948379,348.517861 C307.818428,324.662069 327.415371,363.722651 367.221253,324.662069 C407.027135,285.601487 412.390831,235.770939 449.643821,226.999737 C486.896811,218.228536 527.41523,242.608631 563.78957,181.789469 C600.163911,120.970308 628.980117,97.1145159 661.424577,97.1145159 C683.054218,97.1145159 708.912692,64.7430106 739,0"/>
    <path d="M214,456 C219.385553,400.249102 237.701679,364.421722 268.948379,348.517861 C315.818428,324.662069 335.415371,363.722651 375.221253,324.662069 C415.027135,285.601487 420.390831,235.770939 457.643821,226.999737 C494.896811,218.228536 535.41523,242.608631 571.78957,181.789469 C608.163911,120.970308 636.980117,97.1145159 669.424577,97.1145159 C691.054218,97.1145159 716.912692,64.7430106 747,1.13686838e-13"/>
    <path d="M222,456 C227.385553,400.249102 245.701679,364.421722 276.948379,348.517861 C323.818428,324.662069 343.415371,363.722651 383.221253,324.662069 C423.027135,285.601487 428.390831,235.770939 465.643821,226.999737 C502.896811,218.228536 543.41523,242.608631 579.78957,181.789469 C616.163911,120.970308 644.980117,97.1145159 677.424577,97.1145159 C699.054218,97.1145159 724.912692,64.7430106 755,5.68434189e-14"/>
    <path d="M231,456 C236.385553,400.249102 254.701679,364.421722 285.948379,348.517861 C332.818428,324.662069 352.415371,363.722651 392.221253,324.662069 C432.027135,285.601487 437.390831,235.770939 474.643821,226.999737 C511.896811,218.228536 552.41523,242.608631 588.78957,181.789469 C625.163911,120.970308 653.980117,97.1145159 686.424577,97.1145159 C708.054218,97.1145159 733.912692,64.7430106 764,0"/>
    <path d="M239,456 C244.385553,400.249102 262.701679,364.421722 293.948379,348.517861 C340.818428,324.662069 360.415371,363.722651 400.221253,324.662069 C440.027135,285.601487 445.390831,235.770939 482.643821,226.999737 C519.896811,218.228536 560.41523,242.608631 596.78957,181.789469 C633.163911,120.970308 661.980117,97.1145159 694.424577,97.1145159 C716.054218,97.1145159 741.912692,64.7430106 772,5.68434189e-14"/>
    <path d="M247,456 C252.385553,400.249102 270.701679,364.421722 301.948379,348.517861 C348.818428,324.662069 368.415371,363.722651 408.221253,324.662069 C448.027135,285.601487 453.390831,235.770939 490.643821,226.999737 C527.896811,218.228536 568.41523,242.608631 604.78957,181.789469 C641.163911,120.970308 669.980117,97.1145159 702.424577,97.1145159 C724.054218,97.1145159 749.912692,64.7430106 780,-5.68434189e-14"/>
    <path d="M255,456 C260.385553,400.249102 278.701679,364.421722 309.948379,348.517861 C356.818428,324.662069 376.415371,363.722651 416.221253,324.662069 C456.027135,285.601487 461.390831,235.770939 498.643821,226.999737 C535.896811,218.228536 576.41523,242.608631 612.78957,181.789469 C649.163911,120.970308 677.980117,97.1145159 710.424577,97.1145159 C732.054218,97.1145159 757.912692,64.7430106 788,5.68434189e-14"/>
    <path d="M264,456 C269.385553,400.249102 287.701679,364.421722 318.948379,348.517861 C365.818428,324.662069 385.415371,363.722651 425.221253,324.662069 C465.027135,285.601487 470.390831,235.770939 507.643821,226.999737 C544.896811,218.228536 585.41523,242.608631 621.78957,181.789469 C658.163911,120.970308 686.980117,97.1145159 719.424577,97.1145159 C741.054218,97.1145159 766.912692,64.7430106 797,-1.70530257e-13"/>
    <path d="M272,456 C277.385553,400.249102 295.701679,364.421722 326.948379,348.517861 C373.818428,324.662069 393.415371,363.722651 433.221253,324.662069 C473.027135,285.601487 478.390831,235.770939 515.643821,226.999737 C552.896811,218.228536 593.41523,242.608631 629.78957,181.789469 C666.163911,120.970308 694.980117,97.1145159 727.424577,97.1145159 C749.054218,97.1145159 774.912692,64.7430106 805,-5.68434189e-14"/>
    <path d="M280,456 C285.385553,400.249102 303.701679,364.421722 334.948379,348.517861 C381.818428,324.662069 401.415371,363.722651 441.221253,324.662069 C481.027135,285.601487 486.390831,235.770939 523.643821,226.999737 C560.896811,218.228536 601.41523,242.608631 637.78957,181.789469 C674.163911,120.970308 702.980117,97.1145159 735.424577,97.1145159 C757.054218,97.1145159 782.912692,64.7430106 813,0"/>
    <path d="M288,456 C293.385553,400.249102 311.701679,364.421722 342.948379,348.517861 C389.818428,324.662069 409.415371,363.722651 449.221253,324.662069 C489.027135,285.601487 494.390831,235.770939 531.643821,226.999737 C568.896811,218.228536 609.41523,242.608631 645.78957,181.789469 C682.163911,120.970308 710.980117,97.1145159 743.424577,97.1145159 C765.054218,97.1145159 790.912692,64.7430106 821,5.68434189e-14"/>
    <path d="M297,456 C302.385553,400.249102 320.701679,364.421722 351.948379,348.517861 C398.818428,324.662069 418.415371,363.722651 458.221253,324.662069 C498.027135,285.601487 503.390831,235.770939 540.643821,226.999737 C577.896811,218.228536 618.41523,242.608631 654.78957,181.789469 C691.163911,120.970308 719.980117,97.1145159 752.424577,97.1145159 C774.054218,97.1145159 799.912692,64.7430106 830,0"/>
    <path d="M305,456 C310.385553,400.249102 328.701679,364.421722 359.948379,348.517861 C406.818428,324.662069 426.415371,363.722651 466.221253,324.662069 C506.027135,285.601487 511.390831,235.770939 548.643821,226.999737 C585.896811,218.228536 626.41523,242.608631 662.78957,181.789469 C699.163911,120.970308 727.980117,97.1145159 760.424577,97.1145159 C782.054218,97.1145159 807.912692,64.7430106 838,0"/>
    <path d="M313,456 C318.385553,400.249102 336.701679,364.421722 367.948379,348.517861 C414.818428,324.662069 434.415371,363.722651 474.221253,324.662069 C514.027135,285.601487 519.390831,235.770939 556.643821,226.999737 C593.896811,218.228536 634.41523,242.608631 670.78957,181.789469 C707.163911,120.970308 735.980117,97.1145159 768.424577,97.1145159 C790.054218,97.1145159 815.912692,64.7430106 846,0"/>
    <path d="M321,456 C326.385553,400.249102 344.701679,364.421722 375.948379,348.517861 C422.818428,324.662069 442.415371,363.722651 482.221253,324.662069 C522.027135,285.601487 527.390831,235.770939 564.643821,226.999737 C601.896811,218.228536 642.41523,242.608631 678.78957,181.789469 C715.163911,120.970308 743.980117,97.1145159 776.424577,97.1145159 C798.054218,97.1145159 823.912692,64.7430106 854,-1.13686838e-13"/>
    <path d="M330,456 C335.385553,400.249102 353.701679,364.421722 384.948379,348.517861 C431.818428,324.662069 451.415371,363.722651 491.221253,324.662069 C531.027135,285.601487 536.390831,235.770939 573.643821,226.999737 C610.896811,218.228536 651.41523,242.608631 687.78957,181.789469 C724.163911,120.970308 752.980117,97.1145159 785.424577,97.1145159 C807.054218,97.1145159 832.912692,64.7430106 863,1.13686838e-13"/>
    <path d="M338,456 C343.385553,400.249102 361.701679,364.421722 392.948379,348.517861 C439.818428,324.662069 459.415371,363.722651 499.221253,324.662069 C539.027135,285.601487 544.390831,235.770939 581.643821,226.999737 C618.896811,218.228536 659.41523,242.608631 695.78957,181.789469 C732.163911,120.970308 760.980117,97.1145159 793.424577,97.1145159 C815.054218,97.1145159 840.912692,64.7430106 871,0"/>
    <path d="M346,456 C351.385553,400.249102 369.701679,364.421722 400.948379,348.517861 C447.818428,324.662069 467.415371,363.722651 507.221253,324.662069 C547.027135,285.601487 552.390831,235.770939 589.643821,226.999737 C626.896811,218.228536 667.41523,242.608631 703.78957,181.789469 C740.163911,120.970308 768.980117,97.1145159 801.424577,97.1145159 C823.054218,97.1145159 848.912692,64.7430106 879,-1.70530257e-13"/>
    <path d="M354,456 C359.385553,400.249102 377.701679,364.421722 408.948379,348.517861 C455.818428,324.662069 475.415371,363.722651 515.221253,324.662069 C555.027135,285.601487 560.390831,235.770939 597.643821,226.999737 C634.896811,218.228536 675.41523,242.608631 711.78957,181.789469 C748.163911,120.970308 776.980117,97.1145159 809.424577,97.1145159 C831.054218,97.1145159 856.912692,64.7430106 887,-5.68434189e-14"/>
    <path d="M362,456 C367.385553,400.249102 385.701679,364.421722 416.948379,348.517861 C463.818428,324.662069 483.415371,363.722651 523.221253,324.662069 C563.027135,285.601487 568.390831,235.770939 605.643821,226.999737 C642.896811,218.228536 683.41523,242.608631 719.78957,181.789469 C756.163911,120.970308 784.980117,97.1145159 817.424577,97.1145159 C839.054218,97.1145159 864.912692,64.7430106 895,-5.68434189e-14"/>
    <path d="M371,456 C376.385553,400.249102 394.701679,364.421722 425.948379,348.517861 C472.818428,324.662069 492.415371,363.722651 532.221253,324.662069 C572.027135,285.601487 577.390831,235.770939 614.643821,226.999737 C651.896811,218.228536 692.41523,242.608631 728.78957,181.789469 C765.163911,120.970308 793.980117,97.1145159 826.424577,97.1145159 C848.054218,97.1145159 873.912692,64.7430106 904,5.68434189e-14"/>
    <path d="M379,456 C384.385553,400.249102 402.701679,364.421722 433.948379,348.517861 C480.818428,324.662069 500.415371,363.722651 540.221253,324.662069 C580.027135,285.601487 585.390831,235.770939 622.643821,226.999737 C659.896811,218.228536 700.41523,242.608631 736.78957,181.789469 C773.163911,120.970308 801.980117,97.1145159 834.424577,97.1145159 C856.054218,97.1145159 881.912692,64.7430106 912,5.68434189e-14"/>
    <path d="M387,456 C392.385553,400.249102 410.701679,364.421722 441.948379,348.517861 C488.818428,324.662069 508.415371,363.722651 548.221253,324.662069 C588.027135,285.601487 593.390831,235.770939 630.643821,226.999737 C667.896811,218.228536 708.41523,242.608631 744.78957,181.789469 C781.163911,120.970308 809.980117,97.1145159 842.424577,97.1145159 C864.054218,97.1145159 889.912692,64.7430106 920,5.68434189e-14"/>
    <path d="M395,456 C400.385553,400.249102 418.701679,364.421722 449.948379,348.517861 C496.818428,324.662069 516.415371,363.722651 556.221253,324.662069 C596.027135,285.601487 601.390831,235.770939 638.643821,226.999737 C675.896811,218.228536 716.41523,242.608631 752.78957,181.789469 C789.163911,120.970308 817.980117,97.1145159 850.424577,97.1145159 C872.054218,97.1145159 897.912692,64.7430106 928,5.68434189e-14"/>
    <path d="M404,456 C409.385553,400.249102 427.701679,364.421722 458.948379,348.517861 C505.818428,324.662069 525.415371,363.722651 565.221253,324.662069 C605.027135,285.601487 610.390831,235.770939 647.643821,226.999737 C684.896811,218.228536 725.41523,242.608631 761.78957,181.789469 C798.163911,120.970308 826.980117,97.1145159 859.424577,97.1145159 C881.054218,97.1145159 906.912692,64.7430106 937,5.68434189e-14"/>
    <path d="M412,456 C417.385553,400.249102 435.701679,364.421722 466.948379,348.517861 C513.818428,324.662069 533.415371,363.722651 573.221253,324.662069 C613.027135,285.601487 618.390831,235.770939 655.643821,226.999737 C692.896811,218.228536 733.41523,242.608631 769.78957,181.789469 C806.163911,120.970308 834.980117,97.1145159 867.424577,97.1145159 C889.054218,97.1145159 914.912692,64.7430106 945,1.13686838e-13"/>
  </g>
</svg>
