<svg xmlns="http://www.w3.org/2000/svg" width="574" height="792" viewBox="0 0 574 792">
  <defs>
    <linearGradient id="overlayfixed-a" x1="100.212%" x2="0%" y1="14.722%" y2="89.987%">
      <stop offset="0%" stop-color="#EA1A39"/>
      <stop offset="100%" stop-color="#3C1DF2"/>
    </linearGradient>
  </defs>
  <g fill="none" fill-rule="evenodd" stroke="url(#overlayfixed-a)" transform="rotate(-100 438.278 367.272)">
    <path d="M0.0466846646,423.251366 C5.03817291,371.657333 22.0140948,338.501293 50.9744503,323.783246 C94.4149835,301.706175 112.578004,337.854346 149.471261,301.706175 C186.364517,265.558005 191.335748,219.442892 225.862909,211.325684 C260.390071,203.208476 297.943727,225.770757 331.65653,169.486357 C365.369334,113.201958 392.077037,91.124887 422.147513,91.124887 C442.194496,91.124887 466.160887,61.1670465 494.046685,1.25136569"/>
    <path d="M7.11398711,423.482095 C12.1054754,371.888062 29.0813972,338.732022 58.0417527,324.013975 C101.482286,301.936905 119.645307,338.085075 156.538563,301.936905 C193.43182,265.788734 198.40305,219.673622 232.930212,211.556414 C267.457373,203.439205 305.01103,226.001486 338.723833,169.717087 C372.436636,113.432687 399.144339,91.3556165 429.214815,91.3556165 C449.261799,91.3556165 473.228189,61.397776 501.113987,1.48209518"/>
    <path d="M15.3397455,422.901665 C20.3312337,371.307632 37.3071556,338.151592 66.2675111,323.433545 C109.708044,301.356475 127.871065,337.504645 164.764322,301.356475 C201.657578,265.208304 206.628809,219.093192 241.15597,210.975984 C275.683132,202.858775 313.236788,225.421056 346.949591,169.136657 C380.662395,112.852257 407.370098,90.7751864 437.440573,90.7751864 C457.487557,90.7751864 481.453948,60.817346 509.339745,0.901665097"/>
    <path d="M22.4070479,423.132395 C27.3985362,371.538362 44.3744581,338.382322 73.3348136,323.664275 C116.775347,301.587204 134.938368,337.735374 171.831624,301.587204 C208.724881,265.439034 213.696111,219.323921 248.223273,211.206713 C282.750434,203.089505 320.30409,225.651786 354.016894,169.367386 C387.729697,113.082986 414.4374,91.0059159 444.507876,91.0059159 C464.554859,91.0059159 488.52125,61.0480754 516.407048,1.13239459"/>
    <path d="M30.6328063,422.551965 C35.6242946,370.957932 52.6002164,337.801892 81.5605719,323.083845 C125.001105,301.006774 143.164126,337.154944 180.057383,301.006774 C216.950639,264.858604 221.92187,218.743491 256.449031,210.626283 C290.976192,202.509075 328.529849,225.071356 362.242652,168.786956 C395.955455,112.502556 422.663159,90.4254858 452.733634,90.4254858 C472.780618,90.4254858 496.747009,60.4676454 524.632806,0.551964503"/>
    <path d="M37.7001088,422.782694 C42.691597,371.188661 59.6675189,338.032621 88.6278744,323.314574 C132.068408,301.237503 150.231429,337.385674 187.124685,301.237503 C224.017942,265.089333 228.989172,218.974221 263.516333,210.857012 C298.043495,202.739804 335.597151,225.302085 369.309954,169.017685 C403.022758,112.733286 429.730461,90.6562153 459.800937,90.6562153 C479.84792,90.6562153 503.814311,60.6983749 531.700109,0.782693993"/>
    <path d="M45.752219,423.187072 C50.7437072,371.593039 67.7196291,338.436999 96.6799846,323.718952 C140.120518,301.641881 158.283539,337.790052 195.176795,301.641881 C232.070052,265.493711 237.041282,219.378598 271.568444,211.26139 C306.095605,203.144182 343.649261,225.706463 377.362065,169.422063 C411.074868,113.137663 437.782571,91.0605929 467.853047,91.0605929 C487.90003,91.0605929 511.866421,61.1027525 539.752219,1.18707166"/>
    <path d="M53.9779774,422.606642 C58.9694656,371.012609 75.9453875,337.856569 104.905743,323.138522 C148.346276,301.061451 166.509297,337.209621 203.402554,301.061451 C240.29581,264.913281 245.267041,218.798168 279.794202,210.68096 C314.321363,202.563752 351.87502,225.126033 385.587823,168.841633 C419.300626,112.557233 446.00833,90.4801629 476.078805,90.4801629 C496.125789,90.4801629 520.09218,60.5223224 547.977977,0.606641577"/>
    <path d="M61.0452798,422.837371 C66.036768,371.243338 83.0126899,338.087298 111.973045,323.369251 C155.413579,301.292181 173.5766,337.440351 210.469856,301.292181 C247.363113,265.14401 252.334343,219.028898 286.861505,210.91169 C321.388666,202.794481 358.942322,225.356762 392.655126,169.072362 C426.367929,112.787963 453.075632,90.7108924 483.146108,90.7108924 C503.193091,90.7108924 527.159482,60.7530519 555.04528,0.837371067"/>
    <path d="M68.1125822,423.068101 C73.1040705,371.474068 90.0799924,338.318028 119.040348,323.599981 C162.480881,301.52291 180.643902,337.67108 217.537159,301.52291 C254.430415,265.37474 259.401646,219.259627 293.928807,211.142419 C328.455968,203.025211 366.009625,225.587492 399.722428,169.303092 C433.435231,113.018692 460.142935,90.9416218 490.21341,90.9416218 C510.260394,90.9416218 534.226784,60.9837814 562.112582,1.06810056"/>
    <path d="M75.1798847,423.29883 C80.1713729,371.704797 97.1472948,338.548757 126.10765,323.83071 C169.548184,301.75364 187.711205,337.90181 224.604461,301.75364 C261.497717,265.605469 266.468948,219.490357 300.996109,211.373149 C335.523271,203.25594 373.076927,225.818221 406.78973,169.533821 C440.502534,113.249422 467.210237,91.1723513 497.280713,91.1723513 C517.327696,91.1723513 541.294087,61.2145109 569.179885,1.29883005"/>
    <path d="M84.3904508,422.892048 C89.3819391,371.298015 106.357861,338.141975 135.318216,323.423928 C178.75875,301.346858 196.921771,337.495028 233.815027,301.346858 C270.708284,265.198687 275.679514,219.083575 310.206676,210.966367 C344.733837,202.849158 382.287493,225.411439 416.000297,169.12704 C449.7131,112.84264 476.420803,90.7655694 506.491279,90.7655694 C526.538262,90.7655694 550.504653,60.807729 578.390451,0.892048142"/>
    <path d="M91.4577533,423.122778 C96.4492415,371.528745 113.425163,338.372705 142.385519,323.654658 C185.826052,301.577587 203.989073,337.725758 240.88233,301.577587 C277.775586,265.429417 282.746817,219.314304 317.273978,211.197096 C351.801139,203.079888 389.354796,225.642169 423.067599,169.357769 C456.780402,113.073369 483.488106,90.9962989 513.558581,90.9962989 C533.605565,90.9962989 557.571955,61.0384585 585.457753,1.12277763"/>
    <path d="M98.5250557,423.353507 C103.516544,371.759474 120.492466,338.603434 149.452821,323.885387 C192.893355,301.808317 211.056376,337.956487 247.949632,301.808317 C284.842888,265.660146 289.814119,219.545034 324.34128,211.427826 C358.868442,203.310617 396.422098,225.872898 430.134901,169.588499 C463.847705,113.304099 490.555408,91.2270284 520.625884,91.2270284 C540.672867,91.2270284 564.639258,61.269188 592.525056,1.35350712"/>
    <path d="M106.750814,422.773077 C111.742302,371.179044 128.718224,338.023004 157.67858,323.304957 C201.119113,301.227887 219.282134,337.376057 256.17539,301.227887 C293.068647,265.079716 298.039877,218.964604 332.567039,210.847395 C367.0942,202.730187 404.647857,225.292468 438.36066,169.008068 C472.073463,112.723669 498.781166,90.6465983 528.851642,90.6465983 C548.898626,90.6465983 572.865016,60.6887579 600.750814,0.773077038"/>
    <path d="M114.802924,423.177455 C119.794413,371.583422 136.770334,338.427382 165.73069,323.709335 C209.171223,301.632264 227.334244,337.780435 264.227501,301.632264 C301.120757,265.484094 306.091988,219.368981 340.619149,211.251773 C375.14631,203.134565 412.699967,225.696846 446.41277,169.412446 C480.125573,113.128047 506.833277,91.050976 536.903752,91.050976 C556.950736,91.050976 580.917127,61.0931356 608.802924,1.17745471"/>
    <path d="M121.870227,423.408184 C126.861715,371.814151 143.837637,338.658111 172.797992,323.940064 C216.238526,301.862994 234.401547,338.011164 271.294803,301.862994 C308.18806,265.714823 313.15929,219.599711 347.686451,211.482503 C382.213613,203.365294 419.767269,225.927575 453.480072,169.643176 C487.192876,113.358776 513.900579,91.2817055 543.971055,91.2817055 C564.018038,91.2817055 587.984429,61.3238651 615.870227,1.4081842"/>
    <path d="M129.111177,422.654106 C134.102666,371.060073 151.078588,337.904033 180.038943,323.185986 C223.479476,301.108915 241.642497,337.257086 278.535754,301.108915 C315.42901,264.960745 320.400241,218.845633 354.927402,210.728424 C389.454563,202.611216 427.00822,225.173497 460.721023,168.889097 C494.433826,112.604698 521.14153,90.5276272 551.212005,90.5276272 C571.258989,90.5276272 595.22538,60.5697868 623.111177,0.654105935"/>
    <path d="M137.163288,423.058484 C142.154776,371.464451 159.130698,338.308411 188.091053,323.590364 C231.531586,301.513293 249.694607,337.661464 286.587864,301.513293 C323.48112,265.365123 328.452351,219.25001 362.979512,211.132802 C397.506674,203.015594 435.06033,225.577875 468.773133,169.293475 C502.485937,113.009075 529.19364,90.9320049 559.264115,90.9320049 C579.311099,90.9320049 603.27749,60.9741645 631.163288,1.0584836"/>
    <path d="M145.215398,423.462861 C150.206886,371.868828 167.182808,338.712788 196.143163,323.994741 C239.583697,301.917671 257.746718,338.065841 294.639974,301.917671 C331.533231,265.7695 336.504461,219.654388 371.031623,211.53718 C405.558784,203.419971 443.11244,225.982252 476.825244,169.697853 C510.538047,113.413453 537.24575,91.3363826 567.316226,91.3363826 C587.363209,91.3363826 611.3296,61.3785421 639.215398,1.46286127"/>
    <path d="M152.456348,422.708783 C157.447837,371.11475 174.423759,337.95871 203.384114,323.240663 C246.824647,301.163592 264.987668,337.311763 301.880925,301.163592 C338.774181,265.015422 343.745412,218.90031 378.272573,210.783101 C412.799735,202.665893 450.353391,225.228174 484.066194,168.943774 C517.778997,112.659375 544.486701,90.5823043 574.557176,90.5823043 C594.60416,90.5823043 618.570551,60.6244639 646.456348,0.708783009"/>
    <path d="M159.523651,422.939512 C164.515139,371.34548 181.491061,338.18944 210.451416,323.471393 C253.89195,301.394322 272.054971,337.542492 308.948227,301.394322 C345.841484,265.246152 350.812714,219.131039 385.339876,211.013831 C419.867037,202.896623 457.420693,225.458904 491.133497,169.174504 C524.8463,112.890104 551.554003,90.8130338 581.624479,90.8130338 C601.671462,90.8130338 625.637853,60.8551934 653.523651,0.9395125"/>
    <path d="M167.575761,423.34389 C172.567249,371.749857 189.543171,338.593817 218.503527,323.87577 C261.94406,301.7987 280.107081,337.94687 317.000337,301.7987 C353.893594,265.650529 358.864824,219.535417 393.391986,211.418209 C427.919147,203.301 465.472803,225.863281 499.185607,169.578882 C532.89841,113.294482 559.606113,91.2174115 589.676589,91.2174115 C609.723573,91.2174115 633.689963,61.259571 661.575761,1.34389017"/>
    <path d="M175.801519,422.76346 C180.793008,371.169427 197.76893,338.013387 226.729285,323.29534 C270.169818,301.21827 288.332839,337.36644 325.226096,301.21827 C362.119352,265.070099 367.090583,218.954987 401.617744,210.837779 C436.144906,202.72057 473.698562,225.282851 507.411365,168.998452 C541.124168,112.714052 567.831872,90.6369814 597.902347,90.6369814 C617.949331,90.6369814 641.915722,60.6791409 669.801519,0.763460084"/>
    <path d="M182.868822,422.99419 C187.86031,371.400157 204.836232,338.244117 233.796588,323.52607 C277.237121,301.448999 295.400142,337.597169 332.293398,301.448999 C369.186655,265.300829 374.157885,219.185716 408.685047,211.068508 C443.212208,202.9513 480.765864,225.513581 514.478668,169.229181 C548.191471,112.944781 574.899174,90.8677109 604.96965,90.8677109 C625.016633,90.8677109 648.983024,60.9098704 676.868822,0.994189574"/>
    <path d="M190.920932,423.398567 C195.91242,371.804534 212.888342,338.648494 241.848698,323.930447 C285.289231,301.853377 303.452252,338.001547 340.345508,301.853377 C377.238765,265.705206 382.209995,219.590094 416.737157,211.472886 C451.264318,203.355677 488.817974,225.917958 522.530778,169.633559 C556.243581,113.349159 582.951284,91.2720885 613.02176,91.2720885 C633.068744,91.2720885 657.035134,61.3142481 684.920932,1.39856724"/>
    <path d="M198.161883,422.644489 C203.153371,371.050456 220.129293,337.894416 249.089648,323.176369 C292.530182,301.099298 310.693203,337.247469 347.586459,301.099298 C384.479715,264.951128 389.450946,218.836016 423.978107,210.718807 C458.505269,202.601599 496.058925,225.16388 529.771728,168.87948 C563.484532,112.595081 590.192235,90.5180103 620.262711,90.5180103 C640.309694,90.5180103 664.276085,60.5601698 692.161883,0.64448898"/>
    <path d="M205.229185,422.875218 C210.220673,371.281185 227.196595,338.125146 256.156951,323.407098 C299.597484,301.330028 317.760505,337.478198 354.653761,301.330028 C391.547018,265.181858 396.518249,219.066745 431.04541,210.949537 C465.572571,202.832329 503.126228,225.39461 536.839031,169.11021 C570.551834,112.82581 597.259538,90.7487398 627.330013,90.7487398 C647.376997,90.7487398 671.343387,60.7908993 699.229185,0.875218471"/>
    <path d="M213.281295,423.279596 C218.272784,371.685563 235.248705,338.529523 264.209061,323.811476 C307.649594,301.734406 325.812615,337.882576 362.705872,301.734406 C399.599128,265.586235 404.570359,219.471123 439.09752,211.353915 C473.624681,203.236706 511.178338,225.798987 544.891141,169.514588 C578.603944,113.230188 605.311648,91.1531174 635.382123,91.1531174 C655.429107,91.1531174 679.395498,61.195277 707.281295,1.27959614"/>
    <path d="M221.507054,422.699166 C226.498542,371.105133 243.474464,337.949093 272.434819,323.231046 C315.875353,301.153976 334.038374,337.302146 370.93163,301.153976 C407.824887,265.005805 412.796117,218.890693 447.323278,210.773485 C481.85044,202.656276 519.404096,225.218557 553.116899,168.934157 C586.829703,112.649758 613.537406,90.5726873 643.607882,90.5726873 C663.654865,90.5726873 687.621256,60.6148469 715.507054,0.699166055"/>
    <path d="M228.574356,422.929896 C233.565844,371.335863 250.541766,338.179823 279.502122,323.461776 C322.942655,301.384705 341.105676,337.532875 377.998932,301.384705 C414.892189,265.236535 419.86342,219.121422 454.390581,211.004214 C488.917742,202.887006 526.471399,225.449287 560.184202,169.164887 C593.897005,112.880487 620.604709,90.8034168 650.675184,90.8034168 C670.722168,90.8034168 694.688558,60.8455764 722.574356,0.929895545"/>
    <path d="M235.641659,423.160625 C240.633147,371.566592 257.609069,338.410552 286.569424,323.692505 C330.009958,301.615435 348.172978,337.763605 385.066235,301.615435 C421.959491,265.467264 426.930722,219.352152 461.457883,211.234943 C495.985045,203.117735 533.538701,225.680016 567.251504,169.395616 C600.964308,113.111217 627.672011,91.0341463 657.742486,91.0341463 C677.78947,91.0341463 701.755861,61.0763059 729.641659,1.16062504"/>
    <path d="M243.867417,422.580195 C248.858905,370.986162 265.834827,337.830122 294.795183,323.112075 C338.235716,301.035004 356.398737,337.183175 393.291993,301.035004 C430.18525,264.886834 435.15648,218.771722 469.683642,210.654513 C504.210803,202.537305 541.764459,225.099586 575.477263,168.815186 C609.190066,112.530787 635.897769,90.4537162 665.968245,90.4537162 C686.015229,90.4537162 709.981619,60.4958758 737.867417,0.580194951"/>
    <path d="M251.919527,422.984573 C256.911015,371.39054 273.886937,338.2345 302.847293,323.516453 C346.287826,301.439382 364.450847,337.587553 401.344104,301.439382 C438.23736,265.291212 443.208591,219.176099 477.735752,211.058891 C512.262913,202.941683 549.81657,225.503964 583.529373,169.219564 C617.242176,112.935164 643.94988,90.8580939 674.020355,90.8580939 C694.067339,90.8580939 718.033729,60.9002535 745.919527,0.984572619"/>
    <path d="M258.98683,423.215302 C263.978318,371.621269 280.95424,338.465229 309.914595,323.747182 C353.355129,301.670112 371.51815,337.818282 408.411406,301.670112 C445.304662,265.521941 450.275893,219.406829 484.803054,211.289621 C519.330216,203.172412 556.883872,225.734693 590.596675,169.450294 C624.309479,113.165894 651.017182,91.0888234 681.087658,91.0888234 C701.134641,91.0888234 725.101032,61.130983 752.98683,1.21530211"/>
    <path d="M266.22778,422.461224 C271.219269,370.867191 288.19519,337.711151 317.155546,322.993104 C360.596079,300.916033 378.7591,337.064204 415.652357,300.916033 C452.545613,264.767863 457.516844,218.652751 492.044005,210.535542 C526.571166,202.418334 564.124823,224.980615 597.837626,168.696215 C631.550429,112.411816 658.258133,90.3347451 688.328608,90.3347451 C708.375592,90.3347451 732.341982,60.3769047 760.22778,0.461223848"/>
    <path d="M274.279891,422.865602 C279.271379,371.271569 296.247301,338.115529 325.207656,323.397482 C368.648189,301.320411 386.81121,337.468581 423.704467,301.320411 C460.597723,265.172241 465.568954,219.057128 500.096115,210.93992 C534.623277,202.822712 572.176933,225.384993 605.889736,169.100593 C639.60254,112.816193 666.310243,90.7391228 696.380718,90.7391228 C716.427702,90.7391228 740.394093,60.7812824 768.279891,0.865601516"/>
    <path d="M282.332001,423.269979 C287.323489,371.675946 304.299411,338.519906 333.259766,323.801859 C376.7003,301.724789 394.863321,337.872959 431.756577,301.724789 C468.649833,265.576618 473.621064,219.461506 508.148225,211.344298 C542.675387,203.227089 580.229043,225.78937 613.941846,169.504971 C647.65465,113.220571 674.362353,91.1435005 704.432829,91.1435005 C724.479812,91.1435005 748.446203,61.18566 776.332001,1.26997918"/>
    <path d="M289.572951,422.515901 C294.56444,370.921868 311.540361,337.765828 340.500717,323.047781 C383.94125,300.97071 402.104271,337.118881 438.997528,300.97071 C475.890784,264.82254 480.862015,218.707428 515.389176,210.590219 C549.916337,202.473011 587.469994,225.035292 621.182797,168.750892 C654.8956,112.466493 681.603304,90.3894222 711.673779,90.3894222 C731.720763,90.3894222 755.687154,60.4315818 783.572951,0.515900922"/>
    <path d="M296.640254,422.74663 C301.631742,371.152597 318.607664,337.996557 347.568019,323.27851 C391.008553,301.20144 409.171574,337.34961 446.06483,301.20144 C482.958087,265.053269 487.929317,218.938157 522.456479,210.820949 C556.98364,202.703741 594.537296,225.266021 628.2501,168.981622 C661.962903,112.697222 688.670606,90.6201517 718.741082,90.6201517 C738.788065,90.6201517 762.754456,60.6623113 790.640254,0.746630413"/>
    <path d="M305.677172,423.324656 C310.66866,371.730623 327.644582,338.574583 356.604937,323.856536 C400.045471,301.779466 418.208492,337.927636 455.101748,301.779466 C491.995004,265.631295 496.966235,219.516183 531.493396,211.398975 C566.020558,203.281766 603.574214,225.844047 637.287017,169.559648 C670.999821,113.275248 697.707524,91.1981775 727.778,91.1981775 C747.824983,91.1981775 771.791374,61.2403371 799.677172,1.32465626"/>
    <path d="M312.918122,422.570578 C317.909611,370.976545 334.885532,337.820505 363.845888,323.102458 C407.286421,301.025387 425.449442,337.173558 462.342699,301.025387 C499.235955,264.877217 504.207186,218.762105 538.734347,210.644896 C573.261508,202.527688 610.815165,225.089969 644.527968,168.805569 C678.240771,112.52117 704.948475,90.4440993 735.01895,90.4440993 C755.065934,90.4440993 779.032325,60.4862589 806.918122,0.570577996"/>
    <path d="M319.985425,422.801307 C324.976913,371.207275 341.952835,338.051235 370.91319,323.333187 C414.353724,301.256117 432.516745,337.404287 469.410001,301.256117 C506.303258,265.107947 511.274488,218.992834 545.80165,210.875626 C580.328811,202.758418 617.882467,225.320699 651.595271,169.036299 C685.308074,112.751899 712.015777,90.6748288 742.086253,90.6748288 C762.133236,90.6748288 786.099627,60.7169883 813.985425,0.801307487"/>
    <path d="M327.052727,423.032037 C332.044216,371.438004 349.020137,338.281964 377.980493,323.563917 C421.421026,301.486846 439.584047,337.635017 476.477304,301.486846 C513.37056,265.338676 518.341791,219.223564 552.868952,211.106355 C587.396113,202.989147 624.94977,225.551428 658.662573,169.267028 C692.375376,112.982629 719.08308,90.9055583 749.153555,90.9055583 C769.200539,90.9055583 793.166929,60.9477178 821.052727,1.03203698"/>
    <path d="M335.104837,423.436415 C340.096326,371.842382 357.072248,338.686342 386.032603,323.968295 C429.473136,301.891224 447.636157,338.039395 484.529414,301.891224 C521.42267,265.743054 526.393901,219.627941 560.921062,211.510733 C595.448224,203.393525 633.00188,225.955806 666.714683,169.671406 C700.427487,113.387006 727.13519,91.3099359 757.205665,91.3099359 C777.252649,91.3099359 801.21904,61.3520955 829.104837,1.43641465"/>
    <path d="M343.330596,422.855985 C348.322084,371.261952 365.298006,338.105912 394.258361,323.387865 C437.698895,301.310794 455.861916,337.458964 492.755172,301.310794 C529.648429,265.162624 534.619659,219.047511 569.146821,210.930303 C603.673982,202.813095 641.227638,225.375376 674.940442,169.090976 C708.653245,112.806576 735.360948,90.7295058 765.431424,90.7295058 C785.478407,90.7295058 809.444798,60.7716654 837.330596,0.855984561"/>
    <path d="M350.397898,423.086714 C355.389387,371.492681 372.365308,338.336641 401.325664,323.618594 C444.766197,301.541524 462.929218,337.689694 499.822475,301.541524 C536.715731,265.393353 541.686962,219.278241 576.214123,211.161033 C610.741284,203.043824 648.294941,225.606105 682.007744,169.321705 C715.720547,113.037306 742.428251,90.9602353 772.498726,90.9602353 C792.54571,90.9602353 816.5121,61.0023949 844.397898,1.08671405"/>
    <path d="M358.450008,423.491092 C363.441497,371.897059 380.417419,338.741019 409.377774,324.022972 C452.818307,301.945901 470.981328,338.094072 507.874585,301.945901 C544.767841,265.797731 549.739072,219.682618 584.266233,211.56541 C618.793395,203.448202 656.347051,226.010483 690.059854,169.726083 C723.772658,113.441684 750.480361,91.364613 780.550836,91.364613 C800.59782,91.364613 824.564211,61.4067726 852.450008,1.49109172"/>
    <path d="M365.690959,422.737013 C370.682447,371.14298 387.658369,337.98694 416.618725,323.268893 C460.059258,301.191823 478.222279,337.339993 515.115535,301.191823 C552.008792,265.043652 556.980022,218.92854 591.507184,210.811332 C626.034345,202.694124 663.588002,225.256404 697.300805,168.972005 C731.013608,112.687605 757.721312,90.6105347 787.791787,90.6105347 C807.838771,90.6105347 831.805161,60.6526943 859.690959,0.737013458"/>
    <path d="M373.743069,423.141391 C378.734558,371.547358 395.710479,338.391318 424.670835,323.673271 C468.111368,301.596201 486.274389,337.744371 523.167646,301.596201 C560.060902,265.44803 565.032133,219.332918 599.559294,211.21571 C634.086455,203.098501 671.640112,225.660782 705.352915,169.376383 C739.065718,113.091983 765.773422,91.0149124 795.843897,91.0149124 C815.890881,91.0149124 839.857272,61.057072 867.743069,1.14139113"/>
    <path d="M380.810372,423.372121 C385.80186,371.778088 402.777782,338.622048 431.738137,323.904001 C475.178671,301.82693 493.341692,337.975101 530.234948,301.82693 C567.128205,265.67876 572.099435,219.563647 606.626596,211.446439 C641.153758,203.329231 678.707414,225.891512 712.420217,169.607112 C746.133021,113.322712 772.840724,91.2456419 802.9112,91.2456419 C822.958183,91.2456419 846.924574,61.2878015 874.810372,1.37212062"/>
  </g>
</svg>
