<svg xmlns="http://www.w3.org/2000/svg" width="184" height="668" viewBox="0 0 184 668">
  <defs>
    <linearGradient id="about-a" x1="50%" x2="50%" y1="0%" y2="100%">
      <stop offset="0%" stop-color="#17FF4A"/>
      <stop offset="100%" stop-color="#02DDC3"/>
    </linearGradient>
  </defs>
  <g fill="none" fill-rule="evenodd" stroke="url(#about-a)" transform="rotate(-180 91.5 333.5)">
    <path d="M89.5081967,0 C132.310048,39.0476876 151.69446,72.1743511 147.661433,99.3799904 C141.611892,140.188449 109.171029,169.849577 120.224859,199.404671 C131.278689,228.959765 194.928962,252.220742 179.513661,307.194351 C164.098361,362.16796 118.644845,378.698207 131.278689,425.138116 C143.912532,471.578026 96.5371851,462.61392 120.224859,538.615038 C136.016641,589.28245 130.826971,631.834451 104.655849,666.271043"/>
    <path d="M79.5628415,0 C122.364693,39.0476876 141.749105,72.1743511 137.716078,99.3799904 C131.666537,140.188449 99.2256739,169.849577 110.279504,199.404671 C121.333333,228.959765 184.983607,252.220742 169.568306,307.194351 C154.153005,362.16796 108.699489,378.698207 121.333333,425.138116 C133.967177,471.578026 86.5918299,462.61392 110.279504,538.615038 C126.071286,589.28245 120.881616,631.834451 94.7104934,666.271043"/>
    <path d="M69.6174863,0 C112.419338,39.0476876 131.80375,72.1743511 127.770723,99.3799904 C121.721182,140.188449 89.2803187,169.849577 100.334148,199.404671 C111.387978,228.959765 175.038251,252.220742 159.622951,307.194351 C144.20765,362.16796 98.7541342,378.698207 111.387978,425.138116 C124.021822,471.578026 76.6464747,462.61392 100.334148,538.615038 C116.125931,589.28245 110.936261,631.834451 84.7651382,666.271043"/>
    <path d="M59.6721311,0 C102.473983,39.0476876 121.858395,72.1743511 117.825368,99.3799904 C111.775827,140.188449 79.3349635,169.849577 90.3887932,199.404671 C101.442623,228.959765 165.092896,252.220742 149.677596,307.194351 C134.262295,362.16796 88.808779,378.698207 101.442623,425.138116 C114.076467,471.578026 66.7011195,462.61392 90.3887932,538.615038 C106.180576,589.28245 100.990906,631.834451 74.819783,666.271043"/>
    <path d="M49.726776,0 C92.5286273,39.0476876 111.913039,72.1743511 107.880012,99.3799904 C101.830472,140.188449 69.3896083,169.849577 80.443438,199.404671 C91.4972678,228.959765 155.147541,252.220742 139.73224,307.194351 C124.31694,362.16796 78.8634238,378.698207 91.4972678,425.138116 C104.131112,471.578026 56.7557643,462.61392 80.443438,538.615038 C96.2352205,589.28245 91.0455504,631.834451 64.8744278,666.271043"/>
    <path d="M39.7814208,0 C82.5832721,39.0476876 101.967684,72.1743511 97.9346572,99.3799904 C91.8851165,140.188449 59.4442531,169.849577 70.4980828,199.404671 C81.5519126,228.959765 145.202186,252.220742 129.786885,307.194351 C114.371585,362.16796 68.9180686,378.698207 81.5519126,425.138116 C94.1857565,471.578026 46.8104091,462.61392 70.4980828,538.615038 C86.2898653,589.28245 81.1001952,631.834451 54.9290726,666.271043"/>
    <path d="M29.8360656,0 C72.637917,39.0476876 92.0223291,72.1743511 87.989302,99.3799904 C81.9397613,140.188449 49.4988979,169.849577 60.5527277,199.404671 C71.6065574,228.959765 135.256831,252.220742 119.84153,307.194351 C104.42623,362.16796 58.9727134,378.698207 71.6065574,425.138116 C84.2404013,471.578026 36.865054,462.61392 60.5527277,538.615038 C76.3445101,589.28245 71.15484,631.834451 44.9837174,666.271043"/>
    <path d="M19.8907104,0 C62.6925618,39.0476876 82.0769739,72.1743511 78.0439468,99.3799904 C71.9944061,140.188449 39.5535427,169.849577 50.6073725,199.404671 C61.6612022,228.959765 125.311475,252.220742 109.896175,307.194351 C94.4808743,362.16796 49.0273582,378.698207 61.6612022,425.138116 C74.2950462,471.578026 26.9196988,462.61392 50.6073725,538.615038 C66.3991549,589.28245 61.2094848,631.834451 35.0383622,666.271043"/>
    <path d="M9.94535519,0 C52.7472066,39.0476876 72.1316187,72.1743511 68.0985916,99.3799904 C62.0490509,140.188449 29.6081875,169.849577 40.6620173,199.404671 C51.715847,228.959765 115.36612,252.220742 99.9508197,307.194351 C84.5355191,362.16796 39.082003,378.698207 51.715847,425.138116 C64.349691,471.578026 16.9743436,462.61392 40.6620173,538.615038 C56.4537997,589.28245 51.2641297,631.834451 25.093007,666.271043"/>
    <path d="M-8.02913291e-13,0 C42.8018514,39.0476876 62.1862635,72.1743511 58.1532364,99.3799904 C52.1036957,140.188449 19.6628324,169.849577 30.7166621,199.404671 C41.7704918,228.959765 105.420765,252.220742 90.0054645,307.194351 C74.5901639,362.16796 29.1366478,378.698207 41.7704918,425.138116 C54.4043358,471.578026 7.02898838,462.61392 30.7166621,538.615038 C46.5084445,589.28245 41.3187745,631.834451 15.1476518,666.271043"/>
  </g>
</svg>
