<svg xmlns="http://www.w3.org/2000/svg" width="377" height="803" viewBox="0 0 377 803">
  <defs>
    <linearGradient id="project-a" x1="70.68%" x2="29.72%" y1="5.892%" y2="114.544%">
      <stop offset=".092%" stop-color="#23A433"/>
      <stop offset="100%" stop-color="#E5F405"/>
    </linearGradient>
    <linearGradient id="project-b" x1="70.373%" x2="30.021%" y1="5.892%" y2="114.544%">
      <stop offset=".092%" stop-color="#23A433"/>
      <stop offset="100%" stop-color="#E5F405"/>
    </linearGradient>
    <linearGradient id="project-c" x1="70.071%" x2="30.317%" y1="5.892%" y2="114.544%">
      <stop offset=".092%" stop-color="#23A433"/>
      <stop offset="100%" stop-color="#E5F405"/>
    </linearGradient>
    <linearGradient id="project-d" x1="69.776%" x2="30.606%" y1="5.892%" y2="114.544%">
      <stop offset=".092%" stop-color="#23A433"/>
      <stop offset="100%" stop-color="#E5F405"/>
    </linearGradient>
    <linearGradient id="project-e" x1="69.45%" x2="30.891%" y1="5.993%" y2="114.544%">
      <stop offset=".092%" stop-color="#23A433"/>
      <stop offset="100%" stop-color="#E5F405"/>
    </linearGradient>
    <linearGradient id="project-f" x1="69.486%" x2="30.891%" y1="5.892%" y2="114.544%">
      <stop offset=".092%" stop-color="#23A433"/>
      <stop offset="100%" stop-color="#E5F405"/>
    </linearGradient>
    <linearGradient id="project-g" x1="69.202%" x2="31.17%" y1="5.892%" y2="114.544%">
      <stop offset=".092%" stop-color="#23A433"/>
      <stop offset="100%" stop-color="#E5F405"/>
    </linearGradient>
    <linearGradient id="project-h" x1="68.923%" x2="31.443%" y1="5.892%" y2="114.544%">
      <stop offset=".092%" stop-color="#23A433"/>
      <stop offset="100%" stop-color="#E5F405"/>
    </linearGradient>
    <linearGradient id="project-i" x1="68.649%" x2="31.712%" y1="5.892%" y2="114.544%">
      <stop offset=".092%" stop-color="#23A433"/>
      <stop offset="100%" stop-color="#E5F405"/>
    </linearGradient>
    <linearGradient id="project-j" x1="68.38%" x2="31.976%" y1="5.892%" y2="114.544%">
      <stop offset=".092%" stop-color="#23A433"/>
      <stop offset="100%" stop-color="#E5F405"/>
    </linearGradient>
    <linearGradient id="project-k" x1="68.116%" x2="32.235%" y1="5.892%" y2="114.544%">
      <stop offset=".092%" stop-color="#23A433"/>
      <stop offset="100%" stop-color="#E5F405"/>
    </linearGradient>
    <linearGradient id="project-l" x1="67.856%" x2="32.489%" y1="5.892%" y2="114.544%">
      <stop offset=".092%" stop-color="#23A433"/>
      <stop offset="100%" stop-color="#E5F405"/>
    </linearGradient>
    <linearGradient id="project-m" x1="67.602%" x2="32.739%" y1="5.892%" y2="114.544%">
      <stop offset=".092%" stop-color="#23A433"/>
      <stop offset="100%" stop-color="#E5F405"/>
    </linearGradient>
    <linearGradient id="project-n" x1="67.352%" x2="32.984%" y1="5.892%" y2="114.544%">
      <stop offset=".092%" stop-color="#23A433"/>
      <stop offset="100%" stop-color="#E5F405"/>
    </linearGradient>
  </defs>
  <g fill="none" fill-rule="evenodd" stroke-width="2" transform="translate(1 1)">
    <path stroke="url(#project-a)" d="M0,560.537695 C42.4052002,538.215599 75.9052002,494.537827 100.5,430.412327 C137.3922,338.282497 100.065049,338.86271 177.059416,235.524384 C254.053783,144.27893 240.710417,173.176704 257.806605,65.0086322 C274.902793,-40.1195517 359.749045,13.1335513 375,16.0773713"/>
    <path stroke="url(#project-b)" d="M0,580.537695 C42.4052002,557.650811 75.9052002,513.526856 100.5,449.073782 C137.3922,356.45259 100.065049,357.529958 177.059416,253.166155 C254.053783,160.895225 240.710417,189.970717 257.806605,81.5749434 C274.902793,-23.7809421 359.749045,28.3421059 375,31.0828007"/>
    <path stroke="url(#project-c)" d="M0,600.537695 C42.4052002,577.086022 75.9052002,532.515886 100.5,467.735237 C137.3922,374.622683 100.065049,376.197206 177.059416,270.807926 C254.053783,177.511519 240.710417,206.76473 257.806605,98.1412546 C274.902793,-7.44233258 359.749045,43.5506606 375,46.08823"/>
    <path stroke="url(#project-d)" d="M0,620.537695 C42.4052002,596.521233 75.9052002,551.504916 100.5,486.396692 C137.3922,392.792776 100.065049,394.864454 177.059416,288.449698 C254.053783,194.127814 240.710417,223.558743 257.806605,114.707566 C274.902793,8.89627698 359.749045,58.7592152 375,61.0936594"/>
    <path stroke="url(#project-e)" d="M0,640.537695 C42.4052002,615.956445 75.9052002,570.493945 100.5,505.058147 C137.3922,410.96287 100.065049,413.531702 177.059416,306.091469 C254.053783,210.744108 240.710417,240.352755 257.806605,131.273877 C274.902793,25.2348865 359.749045,73.9677698 375,76.0990887"/>
    <path stroke="url(#project-f)" d="M0,640.537695 C42.4052002,615.956445 75.9052002,570.493945 100.5,505.058147 C137.3922,410.96287 100.065049,413.531702 177.059416,306.091469 C254.053783,210.744108 240.710417,240.352755 257.806605,131.273877 C274.902793,25.2348865 359.749045,73.9677698 375,76.0990887"/>
    <path stroke="url(#project-g)" d="M0,660.537695 C42.4052002,635.391656 75.9052002,589.482975 100.5,523.719602 C137.3922,429.132963 100.065049,432.19895 177.059416,323.73324 C254.053783,227.360403 240.710417,257.146768 257.806605,147.840188 C274.902793,41.5734961 359.749045,89.1763244 375,91.1045181"/>
    <path stroke="url(#project-h)" d="M0,680.537695 C42.4052002,654.826867 75.9052002,608.472005 100.5,542.381057 C137.3922,447.303056 100.065049,450.866198 177.059416,341.375011 C254.053783,243.976697 240.710417,273.940781 257.806605,164.406499 C274.902793,57.9121056 359.749045,104.384879 375,106.109947"/>
    <path stroke="url(#project-i)" d="M0,700.537695 C42.4052002,674.262078 75.9052002,627.461034 100.5,561.042512 C137.3922,465.473149 100.065049,469.533446 177.059416,359.016783 C254.053783,260.592992 240.710417,290.734794 257.806605,180.972811 C274.902793,74.2507152 359.749045,119.593434 375,121.115377"/>
    <path stroke="url(#project-j)" d="M0,720.537695 C42.4052002,693.69729 75.9052002,646.450064 100.5,579.703967 C137.3922,483.643242 100.065049,488.200695 177.059416,376.658554 C254.053783,277.209286 240.710417,307.528807 257.806605,197.539122 C274.902793,90.5893248 359.749045,134.801988 375,136.120806"/>
    <path stroke="url(#project-k)" d="M0,740.537695 C42.4052002,713.132501 75.9052002,665.439093 100.5,598.365422 C137.3922,501.813336 100.065049,506.867943 177.059416,394.300325 C254.053783,293.825581 240.710417,324.32282 257.806605,214.105433 C274.902793,106.927934 359.749045,150.010543 375,151.126236"/>
    <path stroke="url(#project-l)" d="M0,760.537695 C42.4052002,732.567712 75.9052002,684.428123 100.5,617.026877 C137.3922,519.983429 100.065049,525.535191 177.059416,411.942097 C254.053783,310.441875 240.710417,341.116833 257.806605,230.671744 C274.902793,123.266544 359.749045,165.219098 375,166.131665"/>
    <path stroke="url(#project-m)" d="M0,780.537695 C42.4052002,752.002924 75.9052002,703.417153 100.5,635.688332 C137.3922,538.153522 100.065049,544.202439 177.059416,429.583868 C254.053783,327.05817 240.710417,357.910845 257.806605,247.238055 C274.902793,139.605153 359.749045,180.427652 375,181.137094"/>
    <path stroke="url(#project-n)" d="M0,800.537695 C42.4052002,771.438135 75.9052002,722.406182 100.5,654.349787 C137.3922,556.323615 100.065049,562.869687 177.059416,447.225639 C254.053783,343.674464 240.710417,374.704858 257.806605,263.804367 C274.902793,155.943763 359.749045,195.636207 375,196.142524"/>
  </g>
</svg>
