<svg xmlns="http://www.w3.org/2000/svg" width="79" height="828" viewBox="0 0 79 828">
  <defs>
    <linearGradient id="skillsexperience-a" x1="50%" x2="50%" y1="0%" y2="100%">
      <stop offset="0%" stop-color="#6FEEFF"/>
      <stop offset="100%" stop-color="#002B5E"/>
    </linearGradient>
  </defs>
  <g fill="none" fill-rule="evenodd" stroke="url(#skillsexperience-a)" transform="rotate(-90 412 404.5)">
    <path d="M8.52651283e-13,34.2144038 C42.5950511,-6.5237897 107.389015,-6.5237897 194.381891,34.2144038 C281.374768,74.9525973 346.330981,74.9525973 389.250532,34.2144038 C445.330335,-11.4048013 495.242397,-11.4048013 538.986716,34.2144038 C604.603196,102.643211 586.843615,15.0882758 689.277254,15.0882758"/>
    <path d="M10,34.2144038 C52.5950511,-6.5237897 117.389015,-6.5237897 204.381891,34.2144038 C291.374768,74.9525973 356.330981,74.9525973 399.250532,34.2144038 C455.330335,-11.4048013 505.242397,-11.4048013 548.986716,34.2144038 C614.603196,102.643211 596.843615,15.0882758 699.277254,15.0882758"/>
    <path d="M20,34.2144038 C62.5950511,-6.5237897 127.389015,-6.5237897 214.381891,34.2144038 C301.374768,74.9525973 366.330981,74.9525973 409.250532,34.2144038 C465.330335,-11.4048013 515.242397,-11.4048013 558.986716,34.2144038 C624.603196,102.643211 606.843615,15.0882758 709.277254,15.0882758"/>
    <path d="M30,34.2144038 C72.5950511,-6.5237897 137.389015,-6.5237897 224.381891,34.2144038 C311.374768,74.9525973 376.330981,74.9525973 419.250532,34.2144038 C475.330335,-11.4048013 525.242397,-11.4048013 568.986716,34.2144038 C634.603196,102.643211 616.843615,15.0882758 719.277254,15.0882758"/>
    <path d="M40,34.2144038 C82.5950511,-6.5237897 147.389015,-6.5237897 234.381891,34.2144038 C321.374768,74.9525973 386.330981,74.9525973 429.250532,34.2144038 C485.330335,-11.4048013 535.242397,-11.4048013 578.986716,34.2144038 C644.603196,102.643211 626.843615,15.0882758 729.277254,15.0882758"/>
    <path d="M50,34.2144038 C92.5950511,-6.5237897 157.389015,-6.5237897 244.381891,34.2144038 C331.374768,74.9525973 396.330981,74.9525973 439.250532,34.2144038 C495.330335,-11.4048013 545.242397,-11.4048013 588.986716,34.2144038 C654.603196,102.643211 636.843615,15.0882758 739.277254,15.0882758"/>
    <path d="M60,34.2144038 C102.595051,-6.5237897 167.389015,-6.5237897 254.381891,34.2144038 C341.374768,74.9525973 406.330981,74.9525973 449.250532,34.2144038 C505.330335,-11.4048013 555.242397,-11.4048013 598.986716,34.2144038 C664.603196,102.643211 646.843615,15.0882758 749.277254,15.0882758"/>
    <path d="M70,34.2144038 C112.595051,-6.5237897 177.389015,-6.5237897 264.381891,34.2144038 C351.374768,74.9525973 416.330981,74.9525973 459.250532,34.2144038 C515.330335,-11.4048013 565.242397,-11.4048013 608.986716,34.2144038 C674.603196,102.643211 656.843615,15.0882758 759.277254,15.0882758"/>
    <path d="M80,34.2144038 C122.595051,-6.5237897 187.389015,-6.5237897 274.381891,34.2144038 C361.374768,74.9525973 426.330981,74.9525973 469.250532,34.2144038 C525.330335,-11.4048013 575.242397,-11.4048013 618.986716,34.2144038 C684.603196,102.643211 666.843615,15.0882758 769.277254,15.0882758"/>
    <path d="M90,34.2144038 C132.595051,-6.5237897 197.389015,-6.5237897 284.381891,34.2144038 C371.374768,74.9525973 436.330981,74.9525973 479.250532,34.2144038 C535.330335,-11.4048013 585.242397,-11.4048013 628.986716,34.2144038 C694.603196,102.643211 676.843615,15.0882758 779.277254,15.0882758"/>
    <path d="M100,34.2144038 C142.595051,-6.5237897 207.389015,-6.5237897 294.381891,34.2144038 C381.374768,74.9525973 446.330981,74.9525973 489.250532,34.2144038 C545.330335,-11.4048013 595.242397,-11.4048013 638.986716,34.2144038 C704.603196,102.643211 686.843615,15.0882758 789.277254,15.0882758"/>
    <path d="M110,34.2144038 C152.595051,-6.5237897 217.389015,-6.5237897 304.381891,34.2144038 C391.374768,74.9525973 456.330981,74.9525973 499.250532,34.2144038 C555.330335,-11.4048013 605.242397,-11.4048013 648.986716,34.2144038 C714.603196,102.643211 696.843615,15.0882758 799.277254,15.0882758"/>
    <path d="M120,34.2144038 C162.595051,-6.5237897 227.389015,-6.5237897 314.381891,34.2144038 C401.374768,74.9525973 466.330981,74.9525973 509.250532,34.2144038 C565.330335,-11.4048013 615.242397,-11.4048013 658.986716,34.2144038 C724.603196,102.643211 706.843615,15.0882758 809.277254,15.0882758"/>
  </g>
</svg>
