<svg xmlns="http://www.w3.org/2000/svg" width="230" height="80" viewBox="0 0 230 80">
  <g fill="none" transform="translate(3 2)">
    <path stroke="#279AB3" d="M39.5827713,42 C48.8075777,42 54.0719961,46.8389262 52.8162632,53.7919463 L52.8162632,53.7919463 L43.5914568,53.6979866 C44.1710258,50.738255 42.1908318,49.0939597 38.7617153,49.0939597 C35.5257884,49.0939597 33.2558098,50.4563758 32.9177279,52.3825503 C32.4830512,54.8724832 35.7672755,55.295302 39.6793662,55.8120805 C45.4267586,56.6577181 53.2026426,57.9261745 51.7537201,66.1006711 C50.5462847,72.7248322 43.4465646,77 33.8836763,77 C24.3690853,77 18.9597748,72.114094 20.1672102,65.1610738 L20.1672102,65.1610738 L29.7300985,65.2550336 C29.2471243,68.0738255 31.2756158,69.8590604 35.3808961,69.8590604 C38.7134178,69.8590604 41.0799912,68.6375839 41.4663705,66.5234899 C41.9010473,64.1275168 39.196392,63.6107383 35.8155729,63.1409396 C29.9715856,62.3422819 21.0365637,61.590604 22.6303784,52.9463087 C23.8378138,46.3221477 30.5028571,42 39.5827713,42 Z M83.3105263,42 L88,76 L77.6736842,76 L77.0105263,70.8240223 L64.8368421,70.8240223 L62.3263158,76 L52,76 L68.6736842,42 L83.3105263,42 Z M107.176322,42 L104.831234,55.2486034 L105.261965,55.2486034 L117.083123,42 L129,42 L113.493703,58.1927374 L123.065491,76 L111.148615,76 L104.161209,61.5167598 L103.68262,61.5167598 L101.098237,76 L91,76 L97.0780856,42 L107.176322,42 Z M155.310526,42 L160,76 L149.673684,76 L149.010526,70.8240223 L136.836842,70.8240223 L134.326316,76 L124,76 L140.673684,42 L155.310526,42 Z M195,42 L193.563135,50.2150838 L182.834543,50.2150838 L178.236575,76 L168.130624,76 L172.728592,50.2150838 L162,50.2150838 L163.484761,42 L195,42 Z M218.310526,42 L223,76 L212.673684,76 L212.010526,70.8240223 L199.836842,70.8240223 L197.326316,76 L187,76 L203.673684,42 L218.310526,42 Z M146.445714,51 L145.988571,51 L140,64 L148,64 L146.445714,51 Z M209.445714,51 L208.988571,51 L203,64 L211,64 L209.445714,51 Z M74.4457143,51 L73.9885714,51 L68,64 L76,64 L74.4457143,51 Z M68.3105263,2 L73,36 L62.6736842,36 L62.0105263,30.8240223 L49.8368421,30.8240223 L47.3263158,36 L37,36 L53.6736842,2 L68.3105263,2 Z M92.1763224,2 L89.8312343,15.2486034 L90.2619647,15.2486034 L102.083123,2 L114,2 L98.4937028,18.1927374 L108.065491,36 L96.1486146,36 L89.1612091,21.5167598 L88.6826196,21.5167598 L86.0982368,36 L76,36 L82.0780856,2 L92.1763224,2 Z M36,22 L33.475708,36 L-3.25855085e-14,36 C2.94654036,29.4582125 7.15609586,24.7915458 12.6286665,22 L12.6286665,22 L36,22 Z M59.4457143,11 L58.9885714,11 L53,24 L61,24 L59.4457143,11 Z M43,2 C36.8885426,5.33689605 32.739824,9.67022938 30.5538441,15 L30.5538441,15 L4,15 L6.40941201,2 Z"/>
    <path stroke="#0D6578" d="M42.5827713,40 C51.8075777,40 57.0719961,44.8389262 55.8162632,51.7919463 L55.8162632,51.7919463 L46.5914568,51.6979866 C47.1710258,48.738255 45.1908318,47.0939597 41.7617153,47.0939597 C38.5257884,47.0939597 36.2558098,48.4563758 35.9177279,50.3825503 C35.4830512,52.8724832 38.7672755,53.295302 42.6793662,53.8120805 C48.4267586,54.6577181 56.2026426,55.9261745 54.7537201,64.1006711 C53.5462847,70.7248322 46.4465646,75 36.8836763,75 C27.3690853,75 21.9597748,70.114094 23.1672102,63.1610738 L23.1672102,63.1610738 L32.7300985,63.2550336 C32.2471243,66.0738255 34.2756158,67.8590604 38.3808961,67.8590604 C41.7134178,67.8590604 44.0799912,66.6375839 44.4663705,64.5234899 C44.9010473,62.1275168 42.196392,61.6107383 38.8155729,61.1409396 C32.9715856,60.3422819 24.0365637,59.590604 25.6303784,50.9463087 C26.8378138,44.3221477 33.5028571,40 42.5827713,40 Z M86.3105263,40 L91,74 L80.6736842,74 L80.0105263,68.8240223 L67.8368421,68.8240223 L65.3263158,74 L55,74 L71.6736842,40 L86.3105263,40 Z M110.176322,40 L107.831234,53.2486034 L108.261965,53.2486034 L120.083123,40 L132,40 L116.493703,56.1927374 L126.065491,74 L114.148615,74 L107.161209,59.5167598 L106.68262,59.5167598 L104.098237,74 L94,74 L100.078086,40 L110.176322,40 Z M158.310526,40 L163,74 L152.673684,74 L152.010526,68.8240223 L139.836842,68.8240223 L137.326316,74 L127,74 L143.673684,40 L158.310526,40 Z M198,40 L196.563135,48.2150838 L185.834543,48.2150838 L181.236575,74 L171.130624,74 L175.728592,48.2150838 L165,48.2150838 L166.484761,40 L198,40 Z M221.310526,40 L226,74 L215.673684,74 L215.010526,68.8240223 L202.836842,68.8240223 L200.326316,74 L190,74 L206.673684,40 L221.310526,40 Z M149.445714,49 L148.988571,49 L143,62 L151,62 L149.445714,49 Z M212.445714,49 L211.988571,49 L206,62 L214,62 L212.445714,49 Z M77.4457143,49 L76.9885714,49 L71,62 L79,62 L77.4457143,49 Z M71.3105263,9.62582612e-15 L76,34 L65.6736842,34 L65.0105263,28.8240223 L52.8368421,28.8240223 L50.3263158,34 L40,34 L56.6736842,6.04083376e-15 L71.3105263,9.62582612e-15 Z M95.1763224,1.54712603e-14 L92.8312343,13.2486034 L93.2619647,13.2486034 L105.083123,1.78977267e-14 L117,2.08165197e-14 L101.493703,16.1927374 L111.065491,34 L99.1486146,34 L92.1612091,19.5167598 L91.6826196,19.5167598 L89.0982368,34 L79,34 L85.0780856,1.29979056e-14 L95.1763224,1.54712603e-14 Z M39,20 L36.475708,34 L3,34 C5.94654036,27.4582125 10.1560959,22.7915458 15.6286665,20 L15.6286665,20 L39,20 Z M62.4457143,9 L61.9885714,9 L56,22 L64,22 L62.4457143,9 Z M46,3.42653512e-15 C39.8885426,3.33689605 35.739824,7.67022938 33.5538441,13 L33.5538441,13 L7,13 L9.40941201,-5.53557418e-15 Z"/>
    <path stroke="#D3F4FB" stroke-width="2" d="M40.5827713,39 C45.4100122,39 49.1958171,40.2846359 51.6583796,42.4213699 C54.4403425,44.8352435 55.6132587,48.3409133 54.6926302,52.5065458 L54.6926302,52.5065458 L43.2330503,52.7239357 C43.8888416,51.124548 43.8535889,49.8324442 43.0351476,49.0522521 C42.3346361,48.3844786 41.1833397,48.0939597 39.7617153,48.0939597 C38.3639161,48.0939597 37.1658366,48.36818 36.2799524,48.8666942 C35.5441912,49.2807295 35.0265058,49.8498982 34.9028296,50.5545232 C34.8596753,50.8017217 34.8703437,51.0136547 34.9686203,51.1895157 C35.0970761,51.4193805 35.3350164,51.5792834 35.6198416,51.7245492 C36.7849807,52.3187905 38.6815585,52.5395129 40.7599778,52.8140424 C44.4021208,53.3490173 48.686739,54.0872011 51.3061978,56.3192493 C53.2674042,57.9903986 54.4160114,60.4521111 53.7375104,64.279994 C53.0855762,67.8565967 50.8665726,70.8181589 47.4946987,72.8747383 C44.2365353,74.8619631 39.8865504,76 34.8836763,76 C29.9292367,76 26.0450331,74.7130097 23.5060746,72.5776233 C20.6163368,70.1472146 19.3886172,66.6165506 20.288439,62.442311 L20.288439,62.442311 L32.0653046,62.2309041 C31.6638792,63.2391936 31.5413841,64.1336367 31.784252,64.8581612 C31.9159594,65.2510713 32.1572641,65.5870969 32.4958116,65.8629308 C33.3230038,66.5368915 34.6493665,66.8590604 36.3808961,66.8590604 C37.8664552,66.8590604 39.1420258,66.6037576 40.0798278,66.0897295 C40.8246873,65.6814571 41.3435977,65.1046166 41.4824317,64.344984 C41.5306569,64.0791629 41.5262992,63.8518889 41.4382182,63.6614413 C41.340525,63.4502105 41.1528926,63.29773 40.9262862,63.162084 C39.976128,62.5933222 38.4165929,62.3730261 36.6801683,62.13173 C36.4068224,62.0943737 36.1266847,62.0571228 35.8411615,62.0191535 C32.2152086,61.5369688 27.8016908,60.8869594 25.1155424,58.6928847 C24.0349194,57.8102202 23.2139838,56.6907592 22.7797937,55.2613206 C22.4044732,54.0256921 22.3185052,52.5463816 22.6465881,50.7669859 C23.2999239,47.1826934 25.4186018,44.210973 28.618932,42.1444918 C31.7105087,40.1482336 35.8269578,39 40.5827713,39 Z M85.1820676,39 L90.1473926,75 L77.7936322,75 L77.1304743,69.8240223 L66.4632296,69.8240223 L63.9527033,75 L51.3958226,75 L69.0503118,39 L85.1820676,39 Z M74.5079162,52.4334656 L70.5616621,61 L75.8333756,61 L74.5079162,52.4334656 Z M109.368874,39 L107.409593,50.0689806 L117.645836,39 L132.342171,39 L115.718623,56.3594469 L125.738323,75 L111.520767,75 L105.533449,62.5897046 L102.908871,75 L90.8053796,75 L97.2409997,39 L109.368874,39 Z M157.182068,39 L162.147393,75 L149.793632,75 L149.130474,69.8240223 L138.46323,69.8240223 L135.952703,75 L123.395823,75 L141.050312,39 L157.182068,39 Z M146.507916,52.4334656 L142.561662,61 L147.833376,61 L146.507916,52.4334656 Z M197.190086,39 L195.40341,49.2150838 L184.671997,49.2150838 L180.074029,75 L167.936529,75 L172.534497,49.2150838 L161.803063,49.2150838 L163.649295,39 L197.190086,39 Z M220.182068,39 L225.147393,75 L212.793632,75 L212.130474,69.8240223 L201.46323,69.8240223 L198.952703,75 L186.395823,75 L204.050312,39 L220.182068,39 Z M209.507916,52.4334656 L205.561662,61 L210.833376,61 L209.507916,52.4334656 Z M70.1820676,-1 L75.1473926,35 L62.7936322,35 L62.1304743,29.8240223 L51.4632296,29.8240223 L48.9527033,35 L36.3958226,35 L54.0503118,-1 L70.1820676,-1 Z M59.5079162,12.4334656 L55.5616621,21 L60.8333756,21 L59.5079162,12.4334656 Z M94.3688737,-1 L92.4095928,10.0689806 L102.645836,-1 L117.342171,-1 L100.718623,16.3594469 L110.738323,35 L96.5207669,35 L90.5334488,22.5897046 L87.908871,35 L75.8053796,35 L82.2409997,-1 L94.3688737,-1 Z M38.1985316,18.988354 L35.3115266,35 L-0.516543559,35 C2.50956141,27.5794855 7.00498898,22.3352086 12.9349072,19.2328504 L12.9349072,19.2328504 L38.1985316,18.988354 Z M48.3822946,-1 C40.273214,2.43676963 34.9258844,7.26563993 32.4110906,13.547216 L32.4110906,13.547216 L3.79391145,14.020065 L6.57772107,-1 Z"/>
  </g>
</svg>
