<svg xmlns="http://www.w3.org/2000/svg" width="194" height="62" viewBox="0 0 194 62">
  <path fill="#E2E2E2" d="M93,294 L94.6732955,284.388268 L128.139205,247.240223 L128.315341,246.374302 L101.806818,246.374302 L104.360795,232 L155,232 L153.238636,241.611732 L120.653409,278.759777 L120.477273,279.625698 L147.338068,279.625698 L144.784091,294 L93,294 Z M147,294 L178.031579,232 L205.272368,232 L214,294 L194.781579,294 L193.547368,284.561453 L170.890789,284.561453 L166.218421,294 L147,294 Z M177,271 L192,271 L189.085714,248 L188.228571,248 L177,271 Z M217,294 L228.196474,232 L246.798489,232 L242.478589,256.159218 L243.27204,256.159218 L265.047859,232 L287,232 L258.435768,261.527933 L276.06801,294 L254.115869,294 L241.244332,267.589385 L240.36272,267.589385 L235.602015,294 L217,294 Z" transform="translate(-93 -232)"/>
</svg>
